<?xml version="1.0" encoding="utf-8" standalone="no"?>
<!DOCTYPE svg PUBLIC "-//W3C//DTD SVG 1.1//EN"
  "http://www.w3.org/Graphics/SVG/1.1/DTD/svg11.dtd">
<!-- Created with matplotlib (http://matplotlib.org/) -->
<svg height="360pt" version="1.1" viewBox="0 0 504 360" width="504pt" xmlns="http://www.w3.org/2000/svg" xmlns:xlink="http://www.w3.org/1999/xlink">
 <defs>
  <style type="text/css">
*{stroke-linecap:butt;stroke-linejoin:round;}
  </style>
 </defs>
 <g id="figure_1">
  <g id="patch_1">
   <path d="M 0 360 
L 504 360 
L 504 0 
L 0 0 
z
" style="fill:#ffffff;"/>
  </g>
  <g id="patch_2">
   <path d="M 63 320.4 
L 453.6 320.4 
L 453.6 43.2 
L 63 43.2 
z
" style="fill:#ffffff;"/>
  </g>
  <g id="pane3d_1">
   <g id="patch_3">
    <path d="M 114.780066 259.148569 
L 226.571829 191.18541 
L 224.710615 61.318968 
L 106.685728 122.382468 
" style="fill:#f2f2f2;opacity:0.5;stroke:#f2f2f2;stroke-linejoin:miter;"/>
   </g>
  </g>
  <g id="pane3d_2">
   <g id="patch_4">
    <path d="M 226.571829 191.18541 
L 407.663976 229.181202 
L 415.240655 95.39869 
L 224.710615 61.318968 
" style="fill:#e6e6e6;opacity:0.5;stroke:#e6e6e6;stroke-linejoin:miter;"/>
   </g>
  </g>
  <g id="pane3d_3">
   <g id="patch_5">
    <path d="M 114.780066 259.148569 
L 305.313474 303.40086 
L 407.663976 229.181202 
L 226.571829 191.18541 
" style="fill:#ececec;opacity:0.5;stroke:#ececec;stroke-linejoin:miter;"/>
   </g>
  </g>
  <g id="axis3d_1">
   <g id="line2d_1">
    <path d="M 114.780066 259.148569 
L 305.313474 303.40086 
" style="fill:none;stroke:#000000;stroke-linecap:square;stroke-width:0.8;"/>
   </g>
   <g id="text_1">
    <!-- Fertilizer -->
    <defs>
     <path d="M 9.8125 72.90625 
L 51.703125 72.90625 
L 51.703125 64.59375 
L 19.671875 64.59375 
L 19.671875 43.109375 
L 48.578125 43.109375 
L 48.578125 34.8125 
L 19.671875 34.8125 
L 19.671875 0 
L 9.8125 0 
z
" id="DejaVuSans-46"/>
     <path d="M 56.203125 29.59375 
L 56.203125 25.203125 
L 14.890625 25.203125 
Q 15.484375 15.921875 20.484375 11.0625 
Q 25.484375 6.203125 34.421875 6.203125 
Q 39.59375 6.203125 44.453125 7.46875 
Q 49.3125 8.734375 54.109375 11.28125 
L 54.109375 2.78125 
Q 49.265625 0.734375 44.1875 -0.34375 
Q 39.109375 -1.421875 33.890625 -1.421875 
Q 20.796875 -1.421875 13.15625 6.1875 
Q 5.515625 13.8125 5.515625 26.8125 
Q 5.515625 40.234375 12.765625 48.109375 
Q 20.015625 56 32.328125 56 
Q 43.359375 56 49.78125 48.890625 
Q 56.203125 41.796875 56.203125 29.59375 
z
M 47.21875 32.234375 
Q 47.125 39.59375 43.09375 43.984375 
Q 39.0625 48.390625 32.421875 48.390625 
Q 24.90625 48.390625 20.390625 44.140625 
Q 15.875 39.890625 15.1875 32.171875 
z
" id="DejaVuSans-65"/>
     <path d="M 41.109375 46.296875 
Q 39.59375 47.171875 37.8125 47.578125 
Q 36.03125 48 33.890625 48 
Q 26.265625 48 22.1875 43.046875 
Q 18.109375 38.09375 18.109375 28.8125 
L 18.109375 0 
L 9.078125 0 
L 9.078125 54.6875 
L 18.109375 54.6875 
L 18.109375 46.1875 
Q 20.953125 51.171875 25.484375 53.578125 
Q 30.03125 56 36.53125 56 
Q 37.453125 56 38.578125 55.875 
Q 39.703125 55.765625 41.0625 55.515625 
z
" id="DejaVuSans-72"/>
     <path d="M 18.3125 70.21875 
L 18.3125 54.6875 
L 36.8125 54.6875 
L 36.8125 47.703125 
L 18.3125 47.703125 
L 18.3125 18.015625 
Q 18.3125 11.328125 20.140625 9.421875 
Q 21.96875 7.515625 27.59375 7.515625 
L 36.8125 7.515625 
L 36.8125 0 
L 27.59375 0 
Q 17.1875 0 13.234375 3.875 
Q 9.28125 7.765625 9.28125 18.015625 
L 9.28125 47.703125 
L 2.6875 47.703125 
L 2.6875 54.6875 
L 9.28125 54.6875 
L 9.28125 70.21875 
z
" id="DejaVuSans-74"/>
     <path d="M 9.421875 54.6875 
L 18.40625 54.6875 
L 18.40625 0 
L 9.421875 0 
z
M 9.421875 75.984375 
L 18.40625 75.984375 
L 18.40625 64.59375 
L 9.421875 64.59375 
z
" id="DejaVuSans-69"/>
     <path d="M 9.421875 75.984375 
L 18.40625 75.984375 
L 18.40625 0 
L 9.421875 0 
z
" id="DejaVuSans-6c"/>
     <path d="M 5.515625 54.6875 
L 48.1875 54.6875 
L 48.1875 46.484375 
L 14.40625 7.171875 
L 48.1875 7.171875 
L 48.1875 0 
L 4.296875 0 
L 4.296875 8.203125 
L 38.09375 47.515625 
L 5.515625 47.515625 
z
" id="DejaVuSans-7a"/>
    </defs>
    <g transform="translate(169.635706 308.540543)rotate(-346.924599)scale(0.1 -0.1)">
     <use xlink:href="#DejaVuSans-46"/>
     <use x="57.441406" xlink:href="#DejaVuSans-65"/>
     <use x="118.964844" xlink:href="#DejaVuSans-72"/>
     <use x="160.078125" xlink:href="#DejaVuSans-74"/>
     <use x="199.287109" xlink:href="#DejaVuSans-69"/>
     <use x="227.070312" xlink:href="#DejaVuSans-6c"/>
     <use x="254.853516" xlink:href="#DejaVuSans-69"/>
     <use x="282.636719" xlink:href="#DejaVuSans-7a"/>
     <use x="335.126953" xlink:href="#DejaVuSans-65"/>
     <use x="396.650391" xlink:href="#DejaVuSans-72"/>
    </g>
   </g>
   <g id="Line3DCollection_1">
    <path d="M 126.396213 261.846475 
L 237.647197 193.509185 
L 236.339385 63.398982 
" style="fill:none;stroke:#b0b0b0;stroke-width:0.8;"/>
    <path d="M 153.197789 268.071268 
L 263.183753 198.867129 
L 263.163723 68.196997 
" style="fill:none;stroke:#b0b0b0;stroke-width:0.8;"/>
    <path d="M 180.353332 274.378272 
L 289.032982 204.290677 
L 290.33328 73.056761 
" style="fill:none;stroke:#b0b0b0;stroke-width:0.8;"/>
    <path d="M 207.869899 280.769126 
L 315.200661 209.78104 
L 317.854763 77.979473 
" style="fill:none;stroke:#b0b0b0;stroke-width:0.8;"/>
    <path d="M 235.75474 287.245513 
L 341.692712 215.339462 
L 345.735053 82.966364 
" style="fill:none;stroke:#b0b0b0;stroke-width:0.8;"/>
    <path d="M 264.015296 293.809161 
L 368.515204 220.967214 
L 373.981214 88.018697 
" style="fill:none;stroke:#b0b0b0;stroke-width:0.8;"/>
    <path d="M 292.659212 300.461847 
L 395.674358 226.665604 
L 402.600496 93.13777 
" style="fill:none;stroke:#b0b0b0;stroke-width:0.8;"/>
   </g>
   <g id="xtick_1">
    <g id="line2d_2">
     <path d="M 127.354697 261.257714 
L 124.475669 263.026192 
" style="fill:none;stroke:#000000;stroke-linecap:square;stroke-width:0.8;"/>
    </g>
    <g id="text_2">
     <!-- 100 -->
     <defs>
      <path d="M 12.40625 8.296875 
L 28.515625 8.296875 
L 28.515625 63.921875 
L 10.984375 60.40625 
L 10.984375 69.390625 
L 28.421875 72.90625 
L 38.28125 72.90625 
L 38.28125 8.296875 
L 54.390625 8.296875 
L 54.390625 0 
L 12.40625 0 
z
" id="DejaVuSans-31"/>
      <path d="M 31.78125 66.40625 
Q 24.171875 66.40625 20.328125 58.90625 
Q 16.5 51.421875 16.5 36.375 
Q 16.5 21.390625 20.328125 13.890625 
Q 24.171875 6.390625 31.78125 6.390625 
Q 39.453125 6.390625 43.28125 13.890625 
Q 47.125 21.390625 47.125 36.375 
Q 47.125 51.421875 43.28125 58.90625 
Q 39.453125 66.40625 31.78125 66.40625 
z
M 31.78125 74.21875 
Q 44.046875 74.21875 50.515625 64.515625 
Q 56.984375 54.828125 56.984375 36.375 
Q 56.984375 17.96875 50.515625 8.265625 
Q 44.046875 -1.421875 31.78125 -1.421875 
Q 19.53125 -1.421875 13.0625 8.265625 
Q 6.59375 17.96875 6.59375 36.375 
Q 6.59375 54.828125 13.0625 64.515625 
Q 19.53125 74.21875 31.78125 74.21875 
z
" id="DejaVuSans-30"/>
     </defs>
     <g transform="translate(109.381329 282.930314)scale(0.1 -0.1)">
      <use xlink:href="#DejaVuSans-31"/>
      <use x="63.623047" xlink:href="#DejaVuSans-30"/>
      <use x="127.246094" xlink:href="#DejaVuSans-30"/>
     </g>
    </g>
   </g>
   <g id="xtick_2">
    <g id="line2d_3">
     <path d="M 154.145819 267.47476 
L 151.298171 269.266525 
" style="fill:none;stroke:#000000;stroke-linecap:square;stroke-width:0.8;"/>
    </g>
    <g id="text_3">
     <!-- 200 -->
     <defs>
      <path d="M 19.1875 8.296875 
L 53.609375 8.296875 
L 53.609375 0 
L 7.328125 0 
L 7.328125 8.296875 
Q 12.9375 14.109375 22.625 23.890625 
Q 32.328125 33.6875 34.8125 36.53125 
Q 39.546875 41.84375 41.421875 45.53125 
Q 43.3125 49.21875 43.3125 52.78125 
Q 43.3125 58.59375 39.234375 62.25 
Q 35.15625 65.921875 28.609375 65.921875 
Q 23.96875 65.921875 18.8125 64.3125 
Q 13.671875 62.703125 7.8125 59.421875 
L 7.8125 69.390625 
Q 13.765625 71.78125 18.9375 73 
Q 24.125 74.21875 28.421875 74.21875 
Q 39.75 74.21875 46.484375 68.546875 
Q 53.21875 62.890625 53.21875 53.421875 
Q 53.21875 48.921875 51.53125 44.890625 
Q 49.859375 40.875 45.40625 35.40625 
Q 44.1875 33.984375 37.640625 27.21875 
Q 31.109375 20.453125 19.1875 8.296875 
z
" id="DejaVuSans-32"/>
     </defs>
     <g transform="translate(136.180038 289.254463)scale(0.1 -0.1)">
      <use xlink:href="#DejaVuSans-32"/>
      <use x="63.623047" xlink:href="#DejaVuSans-30"/>
      <use x="127.246094" xlink:href="#DejaVuSans-30"/>
     </g>
    </g>
   </g>
   <g id="xtick_3">
    <g id="line2d_4">
     <path d="M 181.290546 273.773862 
L 178.475362 275.589377 
" style="fill:none;stroke:#000000;stroke-linecap:square;stroke-width:0.8;"/>
    </g>
    <g id="text_4">
     <!-- 300 -->
     <defs>
      <path d="M 40.578125 39.3125 
Q 47.65625 37.796875 51.625 33 
Q 55.609375 28.21875 55.609375 21.1875 
Q 55.609375 10.40625 48.1875 4.484375 
Q 40.765625 -1.421875 27.09375 -1.421875 
Q 22.515625 -1.421875 17.65625 -0.515625 
Q 12.796875 0.390625 7.625 2.203125 
L 7.625 11.71875 
Q 11.71875 9.328125 16.59375 8.109375 
Q 21.484375 6.890625 26.8125 6.890625 
Q 36.078125 6.890625 40.9375 10.546875 
Q 45.796875 14.203125 45.796875 21.1875 
Q 45.796875 27.640625 41.28125 31.265625 
Q 36.765625 34.90625 28.71875 34.90625 
L 20.21875 34.90625 
L 20.21875 43.015625 
L 29.109375 43.015625 
Q 36.375 43.015625 40.234375 45.921875 
Q 44.09375 48.828125 44.09375 54.296875 
Q 44.09375 59.90625 40.109375 62.90625 
Q 36.140625 65.921875 28.71875 65.921875 
Q 24.65625 65.921875 20.015625 65.03125 
Q 15.375 64.15625 9.8125 62.3125 
L 9.8125 71.09375 
Q 15.4375 72.65625 20.34375 73.4375 
Q 25.25 74.21875 29.59375 74.21875 
Q 40.828125 74.21875 47.359375 69.109375 
Q 53.90625 64.015625 53.90625 55.328125 
Q 53.90625 49.265625 50.4375 45.09375 
Q 46.96875 40.921875 40.578125 39.3125 
z
" id="DejaVuSans-33"/>
     </defs>
     <g transform="translate(163.33329 295.66228)scale(0.1 -0.1)">
      <use xlink:href="#DejaVuSans-33"/>
      <use x="63.623047" xlink:href="#DejaVuSans-30"/>
      <use x="127.246094" xlink:href="#DejaVuSans-30"/>
     </g>
    </g>
   </g>
   <g id="xtick_4">
    <g id="line2d_5">
     <path d="M 208.795926 280.156656 
L 206.014324 281.996395 
" style="fill:none;stroke:#000000;stroke-linecap:square;stroke-width:0.8;"/>
    </g>
    <g id="text_5">
     <!-- 400 -->
     <defs>
      <path d="M 37.796875 64.3125 
L 12.890625 25.390625 
L 37.796875 25.390625 
z
M 35.203125 72.90625 
L 47.609375 72.90625 
L 47.609375 25.390625 
L 58.015625 25.390625 
L 58.015625 17.1875 
L 47.609375 17.1875 
L 47.609375 0 
L 37.796875 0 
L 37.796875 17.1875 
L 4.890625 17.1875 
L 4.890625 26.703125 
z
" id="DejaVuSans-34"/>
     </defs>
     <g transform="translate(190.848168 302.155436)scale(0.1 -0.1)">
      <use xlink:href="#DejaVuSans-34"/>
      <use x="63.623047" xlink:href="#DejaVuSans-30"/>
      <use x="127.246094" xlink:href="#DejaVuSans-30"/>
     </g>
    </g>
   </g>
   <g id="xtick_5">
    <g id="line2d_6">
     <path d="M 236.669194 286.624821 
L 233.922329 288.489273 
" style="fill:none;stroke:#000000;stroke-linecap:square;stroke-width:0.8;"/>
    </g>
    <g id="text_6">
     <!-- 500 -->
     <defs>
      <path d="M 10.796875 72.90625 
L 49.515625 72.90625 
L 49.515625 64.59375 
L 19.828125 64.59375 
L 19.828125 46.734375 
Q 21.96875 47.46875 24.109375 47.828125 
Q 26.265625 48.1875 28.421875 48.1875 
Q 40.625 48.1875 47.75 41.5 
Q 54.890625 34.8125 54.890625 23.390625 
Q 54.890625 11.625 47.5625 5.09375 
Q 40.234375 -1.421875 26.90625 -1.421875 
Q 22.3125 -1.421875 17.546875 -0.640625 
Q 12.796875 0.140625 7.71875 1.703125 
L 7.71875 11.625 
Q 12.109375 9.234375 16.796875 8.0625 
Q 21.484375 6.890625 26.703125 6.890625 
Q 35.15625 6.890625 40.078125 11.328125 
Q 45.015625 15.765625 45.015625 23.390625 
Q 45.015625 31 40.078125 35.4375 
Q 35.15625 39.890625 26.703125 39.890625 
Q 22.75 39.890625 18.8125 39.015625 
Q 14.890625 38.140625 10.796875 36.28125 
z
" id="DejaVuSans-35"/>
     </defs>
     <g transform="translate(218.731944 308.735646)scale(0.1 -0.1)">
      <use xlink:href="#DejaVuSans-35"/>
      <use x="63.623047" xlink:href="#DejaVuSans-30"/>
      <use x="127.246094" xlink:href="#DejaVuSans-30"/>
     </g>
    </g>
   </g>
   <g id="xtick_6">
    <g id="line2d_7">
     <path d="M 264.917781 293.180081 
L 262.206844 295.069747 
" style="fill:none;stroke:#000000;stroke-linecap:square;stroke-width:0.8;"/>
    </g>
    <g id="text_7">
     <!-- 600 -->
     <defs>
      <path d="M 33.015625 40.375 
Q 26.375 40.375 22.484375 35.828125 
Q 18.609375 31.296875 18.609375 23.390625 
Q 18.609375 15.53125 22.484375 10.953125 
Q 26.375 6.390625 33.015625 6.390625 
Q 39.65625 6.390625 43.53125 10.953125 
Q 47.40625 15.53125 47.40625 23.390625 
Q 47.40625 31.296875 43.53125 35.828125 
Q 39.65625 40.375 33.015625 40.375 
z
M 52.59375 71.296875 
L 52.59375 62.3125 
Q 48.875 64.0625 45.09375 64.984375 
Q 41.3125 65.921875 37.59375 65.921875 
Q 27.828125 65.921875 22.671875 59.328125 
Q 17.53125 52.734375 16.796875 39.40625 
Q 19.671875 43.65625 24.015625 45.921875 
Q 28.375 48.1875 33.59375 48.1875 
Q 44.578125 48.1875 50.953125 41.515625 
Q 57.328125 34.859375 57.328125 23.390625 
Q 57.328125 12.15625 50.6875 5.359375 
Q 44.046875 -1.421875 33.015625 -1.421875 
Q 20.359375 -1.421875 13.671875 8.265625 
Q 6.984375 17.96875 6.984375 36.375 
Q 6.984375 53.65625 15.1875 63.9375 
Q 23.390625 74.21875 37.203125 74.21875 
Q 40.921875 74.21875 44.703125 73.484375 
Q 48.484375 72.75 52.59375 71.296875 
z
" id="DejaVuSans-36"/>
     </defs>
     <g transform="translate(246.992086 315.404675)scale(0.1 -0.1)">
      <use xlink:href="#DejaVuSans-36"/>
      <use x="63.623047" xlink:href="#DejaVuSans-30"/>
      <use x="127.246094" xlink:href="#DejaVuSans-30"/>
     </g>
    </g>
   </g>
   <g id="xtick_7">
    <g id="line2d_8">
     <path d="M 293.54932 299.824207 
L 290.875543 301.739602 
" style="fill:none;stroke:#000000;stroke-linecap:square;stroke-width:0.8;"/>
    </g>
    <g id="text_8">
     <!-- 700 -->
     <defs>
      <path d="M 8.203125 72.90625 
L 55.078125 72.90625 
L 55.078125 68.703125 
L 28.609375 0 
L 18.3125 0 
L 43.21875 64.59375 
L 8.203125 64.59375 
z
" id="DejaVuSans-37"/>
     </defs>
     <g transform="translate(275.636268 322.164332)scale(0.1 -0.1)">
      <use xlink:href="#DejaVuSans-37"/>
      <use x="63.623047" xlink:href="#DejaVuSans-30"/>
      <use x="127.246094" xlink:href="#DejaVuSans-30"/>
     </g>
    </g>
   </g>
  </g>
  <g id="axis3d_2">
   <g id="line2d_9">
    <path d="M 407.663976 229.181202 
L 305.313474 303.40086 
" style="fill:none;stroke:#000000;stroke-linecap:square;stroke-width:0.8;"/>
   </g>
   <g id="text_9">
    <!-- Rainfall -->
    <defs>
     <path d="M 44.390625 34.1875 
Q 47.5625 33.109375 50.5625 29.59375 
Q 53.5625 26.078125 56.59375 19.921875 
L 66.609375 0 
L 56 0 
L 46.6875 18.703125 
Q 43.0625 26.03125 39.671875 28.421875 
Q 36.28125 30.8125 30.421875 30.8125 
L 19.671875 30.8125 
L 19.671875 0 
L 9.8125 0 
L 9.8125 72.90625 
L 32.078125 72.90625 
Q 44.578125 72.90625 50.734375 67.671875 
Q 56.890625 62.453125 56.890625 51.90625 
Q 56.890625 45.015625 53.6875 40.46875 
Q 50.484375 35.9375 44.390625 34.1875 
z
M 19.671875 64.796875 
L 19.671875 38.921875 
L 32.078125 38.921875 
Q 39.203125 38.921875 42.84375 42.21875 
Q 46.484375 45.515625 46.484375 51.90625 
Q 46.484375 58.296875 42.84375 61.546875 
Q 39.203125 64.796875 32.078125 64.796875 
z
" id="DejaVuSans-52"/>
     <path d="M 34.28125 27.484375 
Q 23.390625 27.484375 19.1875 25 
Q 14.984375 22.515625 14.984375 16.5 
Q 14.984375 11.71875 18.140625 8.90625 
Q 21.296875 6.109375 26.703125 6.109375 
Q 34.1875 6.109375 38.703125 11.40625 
Q 43.21875 16.703125 43.21875 25.484375 
L 43.21875 27.484375 
z
M 52.203125 31.203125 
L 52.203125 0 
L 43.21875 0 
L 43.21875 8.296875 
Q 40.140625 3.328125 35.546875 0.953125 
Q 30.953125 -1.421875 24.3125 -1.421875 
Q 15.921875 -1.421875 10.953125 3.296875 
Q 6 8.015625 6 15.921875 
Q 6 25.140625 12.171875 29.828125 
Q 18.359375 34.515625 30.609375 34.515625 
L 43.21875 34.515625 
L 43.21875 35.40625 
Q 43.21875 41.609375 39.140625 45 
Q 35.0625 48.390625 27.6875 48.390625 
Q 23 48.390625 18.546875 47.265625 
Q 14.109375 46.140625 10.015625 43.890625 
L 10.015625 52.203125 
Q 14.9375 54.109375 19.578125 55.046875 
Q 24.21875 56 28.609375 56 
Q 40.484375 56 46.34375 49.84375 
Q 52.203125 43.703125 52.203125 31.203125 
z
" id="DejaVuSans-61"/>
     <path d="M 54.890625 33.015625 
L 54.890625 0 
L 45.90625 0 
L 45.90625 32.71875 
Q 45.90625 40.484375 42.875 44.328125 
Q 39.84375 48.1875 33.796875 48.1875 
Q 26.515625 48.1875 22.3125 43.546875 
Q 18.109375 38.921875 18.109375 30.90625 
L 18.109375 0 
L 9.078125 0 
L 9.078125 54.6875 
L 18.109375 54.6875 
L 18.109375 46.1875 
Q 21.34375 51.125 25.703125 53.5625 
Q 30.078125 56 35.796875 56 
Q 45.21875 56 50.046875 50.171875 
Q 54.890625 44.34375 54.890625 33.015625 
z
" id="DejaVuSans-6e"/>
     <path d="M 37.109375 75.984375 
L 37.109375 68.5 
L 28.515625 68.5 
Q 23.6875 68.5 21.796875 66.546875 
Q 19.921875 64.59375 19.921875 59.515625 
L 19.921875 54.6875 
L 34.71875 54.6875 
L 34.71875 47.703125 
L 19.921875 47.703125 
L 19.921875 0 
L 10.890625 0 
L 10.890625 47.703125 
L 2.296875 47.703125 
L 2.296875 54.6875 
L 10.890625 54.6875 
L 10.890625 58.5 
Q 10.890625 67.625 15.140625 71.796875 
Q 19.390625 75.984375 28.609375 75.984375 
z
" id="DejaVuSans-66"/>
    </defs>
    <g transform="translate(372.128096 302.898493)rotate(-35.947815)scale(0.1 -0.1)">
     <use xlink:href="#DejaVuSans-52"/>
     <use x="69.451172" xlink:href="#DejaVuSans-61"/>
     <use x="130.730469" xlink:href="#DejaVuSans-69"/>
     <use x="158.513672" xlink:href="#DejaVuSans-6e"/>
     <use x="221.892578" xlink:href="#DejaVuSans-66"/>
     <use x="257.097656" xlink:href="#DejaVuSans-61"/>
     <use x="318.376953" xlink:href="#DejaVuSans-6c"/>
     <use x="346.160156" xlink:href="#DejaVuSans-6c"/>
    </g>
   </g>
   <g id="Line3DCollection_2">
    <path d="M 114.767288 118.201246 
L 122.407062 254.511781 
L 312.318192 298.321375 
" style="fill:none;stroke:#b0b0b0;stroke-width:0.8;"/>
    <path d="M 128.428844 111.133055 
L 135.309448 246.667849 
L 324.160582 289.733844 
" style="fill:none;stroke:#b0b0b0;stroke-width:0.8;"/>
    <path d="M 141.852651 104.18787 
L 147.998633 238.953532 
L 335.798338 281.294703 
" style="fill:none;stroke:#b0b0b0;stroke-width:0.8;"/>
    <path d="M 155.044861 97.362509 
L 160.479858 231.365643 
L 347.236721 273.000139 
" style="fill:none;stroke:#b0b0b0;stroke-width:0.8;"/>
    <path d="M 168.011416 90.653896 
L 172.758195 223.901099 
L 358.480808 264.846468 
" style="fill:none;stroke:#b0b0b0;stroke-width:0.8;"/>
    <path d="M 180.758057 84.059062 
L 184.83855 216.556917 
L 369.53551 256.83013 
" style="fill:none;stroke:#b0b0b0;stroke-width:0.8;"/>
    <path d="M 193.290333 77.575136 
L 196.725673 209.330209 
L 380.405571 248.947685 
" style="fill:none;stroke:#b0b0b0;stroke-width:0.8;"/>
    <path d="M 205.613604 71.199344 
L 208.424165 202.218178 
L 391.095578 241.195806 
" style="fill:none;stroke:#b0b0b0;stroke-width:0.8;"/>
    <path d="M 217.733057 64.929004 
L 219.938479 195.218118 
L 401.609969 233.571276 
" style="fill:none;stroke:#b0b0b0;stroke-width:0.8;"/>
   </g>
   <g id="xtick_8">
    <g id="line2d_10">
     <path d="M 310.728803 297.954727 
L 315.500523 299.05549 
" style="fill:none;stroke:#000000;stroke-linecap:square;stroke-width:0.8;"/>
    </g>
    <g id="text_10">
     <!-- 10.0 -->
     <defs>
      <path d="M 10.6875 12.40625 
L 21 12.40625 
L 21 0 
L 10.6875 0 
z
" id="DejaVuSans-2e"/>
     </defs>
     <g transform="translate(314.14874 317.739359)scale(0.1 -0.1)">
      <use xlink:href="#DejaVuSans-31"/>
      <use x="63.623047" xlink:href="#DejaVuSans-30"/>
      <use x="127.246094" xlink:href="#DejaVuSans-2e"/>
      <use x="159.033203" xlink:href="#DejaVuSans-30"/>
     </g>
    </g>
   </g>
   <g id="xtick_9">
    <g id="line2d_11">
     <path d="M 322.580671 289.373558 
L 327.323903 290.455214 
" style="fill:none;stroke:#000000;stroke-linecap:square;stroke-width:0.8;"/>
    </g>
    <g id="text_11">
     <!-- 12.5 -->
     <g transform="translate(325.87262 309.052918)scale(0.1 -0.1)">
      <use xlink:href="#DejaVuSans-31"/>
      <use x="63.623047" xlink:href="#DejaVuSans-32"/>
      <use x="127.246094" xlink:href="#DejaVuSans-2e"/>
      <use x="159.033203" xlink:href="#DejaVuSans-35"/>
     </g>
    </g>
   </g>
   <g id="xtick_10">
    <g id="line2d_12">
     <path d="M 334.227818 280.940615 
L 338.94283 282.003657 
" style="fill:none;stroke:#000000;stroke-linecap:square;stroke-width:0.8;"/>
    </g>
    <g id="text_12">
     <!-- 15.0 -->
     <g transform="translate(337.39401 300.516505)scale(0.1 -0.1)">
      <use xlink:href="#DejaVuSans-31"/>
      <use x="63.623047" xlink:href="#DejaVuSans-35"/>
      <use x="127.246094" xlink:href="#DejaVuSans-2e"/>
      <use x="159.033203" xlink:href="#DejaVuSans-30"/>
     </g>
    </g>
   </g>
   <g id="xtick_11">
    <g id="line2d_13">
     <path d="M 345.675501 272.65209 
L 350.36256 273.696995 
" style="fill:none;stroke:#000000;stroke-linecap:square;stroke-width:0.8;"/>
    </g>
    <g id="text_13">
     <!-- 17.5 -->
     <g transform="translate(348.71811 292.126268)scale(0.1 -0.1)">
      <use xlink:href="#DejaVuSans-31"/>
      <use x="63.623047" xlink:href="#DejaVuSans-37"/>
      <use x="127.246094" xlink:href="#DejaVuSans-2e"/>
      <use x="159.033203" xlink:href="#DejaVuSans-35"/>
     </g>
    </g>
   </g>
   <g id="xtick_12">
    <g id="line2d_14">
     <path d="M 356.928801 264.504304 
L 361.588172 265.531533 
" style="fill:none;stroke:#000000;stroke-linecap:square;stroke-width:0.8;"/>
    </g>
    <g id="text_14">
     <!-- 20.0 -->
     <g transform="translate(359.849945 283.878484)scale(0.1 -0.1)">
      <use xlink:href="#DejaVuSans-32"/>
      <use x="63.623047" xlink:href="#DejaVuSans-30"/>
      <use x="127.246094" xlink:href="#DejaVuSans-2e"/>
      <use x="159.033203" xlink:href="#DejaVuSans-30"/>
     </g>
    </g>
   </g>
   <g id="xtick_13">
    <g id="line2d_15">
     <path d="M 367.992629 256.493705 
L 372.624576 257.503702 
" style="fill:none;stroke:#000000;stroke-linecap:square;stroke-width:0.8;"/>
    </g>
    <g id="text_15">
     <!-- 22.5 -->
     <g transform="translate(370.794371 275.769555)scale(0.1 -0.1)">
      <use xlink:href="#DejaVuSans-32"/>
      <use x="63.623047" xlink:href="#DejaVuSans-32"/>
      <use x="127.246094" xlink:href="#DejaVuSans-2e"/>
      <use x="159.033203" xlink:href="#DejaVuSans-35"/>
     </g>
    </g>
   </g>
   <g id="xtick_14">
    <g id="line2d_16">
     <path d="M 378.871728 248.616854 
L 383.476513 249.61005 
" style="fill:none;stroke:#000000;stroke-linecap:square;stroke-width:0.8;"/>
    </g>
    <g id="text_16">
     <!-- 25.0 -->
     <g transform="translate(381.55608 267.796004)scale(0.1 -0.1)">
      <use xlink:href="#DejaVuSans-32"/>
      <use x="63.623047" xlink:href="#DejaVuSans-35"/>
      <use x="127.246094" xlink:href="#DejaVuSans-2e"/>
      <use x="159.033203" xlink:href="#DejaVuSans-30"/>
     </g>
    </g>
   </g>
   <g id="xtick_15">
    <g id="line2d_17">
     <path d="M 389.570687 240.870432 
L 394.148571 241.847241 
" style="fill:none;stroke:#000000;stroke-linecap:square;stroke-width:0.8;"/>
    </g>
    <g id="text_17">
     <!-- 27.5 -->
     <g transform="translate(392.13961 259.954469)scale(0.1 -0.1)">
      <use xlink:href="#DejaVuSans-32"/>
      <use x="63.623047" xlink:href="#DejaVuSans-37"/>
      <use x="127.246094" xlink:href="#DejaVuSans-2e"/>
      <use x="159.033203" xlink:href="#DejaVuSans-35"/>
     </g>
    </g>
   </g>
   <g id="xtick_16">
    <g id="line2d_18">
     <path d="M 400.093944 233.251224 
L 404.645186 234.212049 
" style="fill:none;stroke:#000000;stroke-linecap:square;stroke-width:0.8;"/>
    </g>
    <g id="text_18">
     <!-- 30.0 -->
     <g transform="translate(402.549351 252.241698)scale(0.1 -0.1)">
      <use xlink:href="#DejaVuSans-33"/>
      <use x="63.623047" xlink:href="#DejaVuSans-30"/>
      <use x="127.246094" xlink:href="#DejaVuSans-2e"/>
      <use x="159.033203" xlink:href="#DejaVuSans-30"/>
     </g>
    </g>
   </g>
  </g>
  <g id="axis3d_3">
   <g id="line2d_19">
    <path d="M 407.663976 229.181202 
L 415.240655 95.39869 
" style="fill:none;stroke:#000000;stroke-linecap:square;stroke-width:0.8;"/>
   </g>
   <g id="text_19">
    <!-- Yield -->
    <defs>
     <path d="M -0.203125 72.90625 
L 10.40625 72.90625 
L 30.609375 42.921875 
L 50.6875 72.90625 
L 61.28125 72.90625 
L 35.5 34.71875 
L 35.5 0 
L 25.59375 0 
L 25.59375 34.71875 
z
" id="DejaVuSans-59"/>
     <path d="M 45.40625 46.390625 
L 45.40625 75.984375 
L 54.390625 75.984375 
L 54.390625 0 
L 45.40625 0 
L 45.40625 8.203125 
Q 42.578125 3.328125 38.25 0.953125 
Q 33.9375 -1.421875 27.875 -1.421875 
Q 17.96875 -1.421875 11.734375 6.484375 
Q 5.515625 14.40625 5.515625 27.296875 
Q 5.515625 40.1875 11.734375 48.09375 
Q 17.96875 56 27.875 56 
Q 33.9375 56 38.25 53.625 
Q 42.578125 51.265625 45.40625 46.390625 
z
M 14.796875 27.296875 
Q 14.796875 17.390625 18.875 11.75 
Q 22.953125 6.109375 30.078125 6.109375 
Q 37.203125 6.109375 41.296875 11.75 
Q 45.40625 17.390625 45.40625 27.296875 
Q 45.40625 37.203125 41.296875 42.84375 
Q 37.203125 48.484375 30.078125 48.484375 
Q 22.953125 48.484375 18.875 42.84375 
Q 14.796875 37.203125 14.796875 27.296875 
z
" id="DejaVuSans-64"/>
    </defs>
    <g transform="translate(455.030326 172.265202)rotate(-86.758556)scale(0.1 -0.1)">
     <use xlink:href="#DejaVuSans-59"/>
     <use x="61.037109" xlink:href="#DejaVuSans-69"/>
     <use x="88.820312" xlink:href="#DejaVuSans-65"/>
     <use x="150.34375" xlink:href="#DejaVuSans-6c"/>
     <use x="178.126953" xlink:href="#DejaVuSans-64"/>
    </g>
   </g>
   <g id="Line3DCollection_3">
    <path d="M 408.123502 221.067284 
L 226.458716 183.29287 
L 114.289937 250.8671 
" style="fill:none;stroke:#b0b0b0;stroke-width:0.8;"/>
    <path d="M 408.918118 207.036641 
L 226.263189 169.649959 
L 113.442161 236.542646 
" style="fill:none;stroke:#b0b0b0;stroke-width:0.8;"/>
    <path d="M 409.721518 192.850882 
L 226.065591 155.86256 
L 112.584702 222.054572 
" style="fill:none;stroke:#b0b0b0;stroke-width:0.8;"/>
    <path d="M 410.53385 178.507421 
L 225.865889 141.928364 
L 111.717392 207.400059 
" style="fill:none;stroke:#b0b0b0;stroke-width:0.8;"/>
    <path d="M 411.355263 164.003613 
L 225.66405 127.845016 
L 110.840061 192.576222 
" style="fill:none;stroke:#b0b0b0;stroke-width:0.8;"/>
    <path d="M 412.18591 149.336755 
L 225.460039 113.610106 
L 109.952534 177.580109 
" style="fill:none;stroke:#b0b0b0;stroke-width:0.8;"/>
    <path d="M 413.025948 134.504081 
L 225.25382 99.221177 
L 109.054633 162.408699 
" style="fill:none;stroke:#b0b0b0;stroke-width:0.8;"/>
    <path d="M 413.875537 119.502764 
L 225.045358 84.675713 
L 108.146173 147.058902 
" style="fill:none;stroke:#b0b0b0;stroke-width:0.8;"/>
    <path d="M 414.734841 104.329911 
L 224.834616 69.971147 
L 107.226969 131.527551 
" style="fill:none;stroke:#b0b0b0;stroke-width:0.8;"/>
   </g>
   <g id="xtick_17">
    <g id="line2d_20">
     <path d="M 406.607633 220.752082 
L 411.158402 221.698345 
" style="fill:none;stroke:#000000;stroke-linecap:square;stroke-width:0.8;"/>
    </g>
    <g id="text_20">
     <!-- 40 -->
     <g transform="translate(420.534699 226.761744)scale(0.1 -0.1)">
      <use xlink:href="#DejaVuSans-34"/>
      <use x="63.623047" xlink:href="#DejaVuSans-30"/>
     </g>
    </g>
   </g>
   <g id="xtick_18">
    <g id="line2d_21">
     <path d="M 407.393641 206.724604 
L 411.970268 207.66137 
" style="fill:none;stroke:#000000;stroke-linecap:square;stroke-width:0.8;"/>
    </g>
    <g id="text_21">
     <!-- 45 -->
     <g transform="translate(421.430627 212.750234)scale(0.1 -0.1)">
      <use xlink:href="#DejaVuSans-34"/>
      <use x="63.623047" xlink:href="#DejaVuSans-35"/>
     </g>
    </g>
   </g>
   <g id="xtick_19">
    <g id="line2d_22">
     <path d="M 408.188335 192.542099 
L 412.791116 193.469099 
" style="fill:none;stroke:#000000;stroke-linecap:square;stroke-width:0.8;"/>
    </g>
    <g id="text_22">
     <!-- 50 -->
     <g transform="translate(422.33644 198.584149)scale(0.1 -0.1)">
      <use xlink:href="#DejaVuSans-35"/>
      <use x="63.623047" xlink:href="#DejaVuSans-30"/>
     </g>
    </g>
   </g>
   <g id="xtick_20">
    <g id="line2d_23">
     <path d="M 408.991861 178.201984 
L 413.621096 179.118943 
" style="fill:none;stroke:#000000;stroke-linecap:square;stroke-width:0.8;"/>
    </g>
    <g id="text_23">
     <!-- 55 -->
     <g transform="translate(423.252301 184.260917)scale(0.1 -0.1)">
      <use xlink:href="#DejaVuSans-35"/>
      <use x="63.623047" xlink:href="#DejaVuSans-35"/>
     </g>
    </g>
   </g>
   <g id="xtick_21">
    <g id="line2d_24">
     <path d="M 409.804367 163.701616 
L 414.460362 164.608251 
" style="fill:none;stroke:#000000;stroke-linecap:square;stroke-width:0.8;"/>
    </g>
    <g id="text_24">
     <!-- 60 -->
     <g transform="translate(424.178378 169.777907)scale(0.1 -0.1)">
      <use xlink:href="#DejaVuSans-36"/>
      <use x="63.623047" xlink:href="#DejaVuSans-30"/>
     </g>
    </g>
   </g>
   <g id="xtick_22">
    <g id="line2d_25">
     <path d="M 410.626003 149.038295 
L 415.309068 149.934315 
" style="fill:none;stroke:#000000;stroke-linecap:square;stroke-width:0.8;"/>
    </g>
    <g id="text_25">
     <!-- 65 -->
     <g transform="translate(425.114844 155.132431)scale(0.1 -0.1)">
      <use xlink:href="#DejaVuSans-36"/>
      <use x="63.623047" xlink:href="#DejaVuSans-35"/>
     </g>
    </g>
   </g>
   <g id="xtick_23">
    <g id="line2d_26">
     <path d="M 411.456925 134.209257 
L 416.167377 135.094364 
" style="fill:none;stroke:#000000;stroke-linecap:square;stroke-width:0.8;"/>
    </g>
    <g id="text_26">
     <!-- 70 -->
     <g transform="translate(426.061874 140.32174)scale(0.1 -0.1)">
      <use xlink:href="#DejaVuSans-37"/>
      <use x="63.623047" xlink:href="#DejaVuSans-30"/>
     </g>
    </g>
   </g>
   <g id="xtick_24">
    <g id="line2d_27">
     <path d="M 412.297291 119.211679 
L 417.035451 120.085565 
" style="fill:none;stroke:#000000;stroke-linecap:square;stroke-width:0.8;"/>
    </g>
    <g id="text_27">
     <!-- 75 -->
     <g transform="translate(427.019648 125.343023)scale(0.1 -0.1)">
      <use xlink:href="#DejaVuSans-37"/>
      <use x="63.623047" xlink:href="#DejaVuSans-35"/>
     </g>
    </g>
   </g>
   <g id="xtick_25">
    <g id="line2d_28">
     <path d="M 413.147263 104.042669 
L 417.913459 104.90502 
" style="fill:none;stroke:#000000;stroke-linecap:square;stroke-width:0.8;"/>
    </g>
    <g id="text_28">
     <!-- 80 -->
     <defs>
      <path d="M 31.78125 34.625 
Q 24.75 34.625 20.71875 30.859375 
Q 16.703125 27.09375 16.703125 20.515625 
Q 16.703125 13.921875 20.71875 10.15625 
Q 24.75 6.390625 31.78125 6.390625 
Q 38.8125 6.390625 42.859375 10.171875 
Q 46.921875 13.96875 46.921875 20.515625 
Q 46.921875 27.09375 42.890625 30.859375 
Q 38.875 34.625 31.78125 34.625 
z
M 21.921875 38.8125 
Q 15.578125 40.375 12.03125 44.71875 
Q 8.5 49.078125 8.5 55.328125 
Q 8.5 64.0625 14.71875 69.140625 
Q 20.953125 74.21875 31.78125 74.21875 
Q 42.671875 74.21875 48.875 69.140625 
Q 55.078125 64.0625 55.078125 55.328125 
Q 55.078125 49.078125 51.53125 44.71875 
Q 48 40.375 41.703125 38.8125 
Q 48.828125 37.15625 52.796875 32.3125 
Q 56.78125 27.484375 56.78125 20.515625 
Q 56.78125 9.90625 50.3125 4.234375 
Q 43.84375 -1.421875 31.78125 -1.421875 
Q 19.734375 -1.421875 13.25 4.234375 
Q 6.78125 9.90625 6.78125 20.515625 
Q 6.78125 27.484375 10.78125 32.3125 
Q 14.796875 37.15625 21.921875 38.8125 
z
M 18.3125 54.390625 
Q 18.3125 48.734375 21.84375 45.5625 
Q 25.390625 42.390625 31.78125 42.390625 
Q 38.140625 42.390625 41.71875 45.5625 
Q 45.3125 48.734375 45.3125 54.390625 
Q 45.3125 60.0625 41.71875 63.234375 
Q 38.140625 66.40625 31.78125 66.40625 
Q 25.390625 66.40625 21.84375 63.234375 
Q 18.3125 60.0625 18.3125 54.390625 
z
" id="DejaVuSans-38"/>
     </defs>
     <g transform="translate(427.98835 110.193404)scale(0.1 -0.1)">
      <use xlink:href="#DejaVuSans-38"/>
      <use x="63.623047" xlink:href="#DejaVuSans-30"/>
     </g>
    </g>
   </g>
  </g>
  <g id="axes_1">
   <g id="Path3DCollection_1">
    <defs>
     <path d="M 0 2.236068 
C 0.593012 2.236068 1.161816 2.000462 1.581139 1.581139 
C 2.000462 1.161816 2.236068 0.593012 2.236068 0 
C 2.236068 -0.593012 2.000462 -1.161816 1.581139 -1.581139 
C 1.161816 -2.000462 0.593012 -2.236068 0 -2.236068 
C -0.593012 -2.236068 -1.161816 -2.000462 -1.581139 -1.581139 
C -2.000462 -1.161816 -2.236068 -0.593012 -2.236068 0 
C -2.236068 0.593012 -2.000462 1.161816 -1.581139 1.581139 
C -1.161816 2.000462 -0.593012 2.236068 0 2.236068 
z
" id="C0_0_3790ee1080"/>
    </defs>
    <g clip-path="url(#p829e18f862)">
     <use style="fill:#008000;stroke:#008000;" x="133.561792" xlink:href="#C0_0_3790ee1080" y="248.9126"/>
    </g>
    <g clip-path="url(#p829e18f862)">
     <use style="fill:#008000;stroke:#008000;" x="209.494043" xlink:href="#C0_0_3790ee1080" y="195.760824"/>
    </g>
    <g clip-path="url(#p829e18f862)">
     <use style="fill:#008000;stroke:#008000;" x="186.645079" xlink:href="#C0_0_3790ee1080" y="232.237689"/>
    </g>
    <g clip-path="url(#p829e18f862)">
     <use style="fill:#008000;stroke:#008000;" x="310.497297" xlink:href="#C0_0_3790ee1080" y="120.381443"/>
    </g>
    <g clip-path="url(#p829e18f862)">
     <use style="fill:#008000;stroke:#008000;" x="291.626057" xlink:href="#C0_0_3790ee1080" y="168.871473"/>
    </g>
    <g clip-path="url(#p829e18f862)">
     <use style="fill:#008000;stroke:#008000;" x="320.048819" xlink:href="#C0_0_3790ee1080" y="174.594516"/>
    </g>
    <g clip-path="url(#p829e18f862)">
     <use style="fill:#008000;stroke:#008000;" x="395.776264" xlink:href="#C0_0_3790ee1080" y="106.006709"/>
    </g>
   </g>
   <g id="Poly3DCollection_1">
    <path clip-path="url(#p829e18f862)" d="M 221.079208 152.799815 
L 226.267133 151.688726 
L 235.537025 141.562997 
L 230.354167 142.689769 
L 221.079208 152.799815 
z
" style="fill-opacity:0.4;"/>
    <path clip-path="url(#p829e18f862)" d="M 226.267133 151.688726 
L 231.476621 150.573019 
L 240.741325 140.431563 
L 235.537025 141.562997 
L 226.267133 151.688726 
z
" style="fill-opacity:0.4;"/>
    <path clip-path="url(#p829e18f862)" d="M 231.476621 150.573019 
L 236.707806 149.452665 
L 245.967199 139.295439 
L 240.741325 140.431563 
L 231.476621 150.573019 
z
" style="fill-opacity:0.4;"/>
    <path clip-path="url(#p829e18f862)" d="M 211.717041 163.004919 
L 216.909899 161.90986 
L 226.267133 151.688726 
L 221.079208 152.799815 
L 211.717041 163.004919 
z
" style="fill-opacity:0.4;"/>
    <path clip-path="url(#p829e18f862)" d="M 236.707806 149.452665 
L 241.960825 148.327636 
L 251.214781 138.154595 
L 245.967199 139.295439 
L 236.707806 149.452665 
z
" style="fill-opacity:0.4;"/>
    <path clip-path="url(#p829e18f862)" d="M 216.909899 161.90986 
L 222.124442 160.810228 
L 231.476621 150.573019 
L 226.267133 151.688726 
L 216.909899 161.90986 
z
" style="fill-opacity:0.4;"/>
    <path clip-path="url(#p829e18f862)" d="M 241.960825 148.327636 
L 247.235815 147.197901 
L 256.484208 137.009002 
L 251.214781 138.154595 
L 241.960825 148.327636 
z
" style="fill-opacity:0.4;"/>
    <path clip-path="url(#p829e18f862)" d="M 222.124442 160.810228 
L 227.360807 159.705994 
L 236.707806 149.452665 
L 231.476621 150.573019 
L 222.124442 160.810228 
z
" style="fill-opacity:0.4;"/>
    <path clip-path="url(#p829e18f862)" d="M 202.266432 173.306429 
L 207.464084 172.227753 
L 216.909899 161.90986 
L 211.717041 163.004919 
L 202.266432 173.306429 
z
" style="fill-opacity:0.4;"/>
    <path clip-path="url(#p829e18f862)" d="M 247.235815 147.197901 
L 252.532913 146.063431 
L 261.775617 135.858631 
L 256.484208 137.009002 
L 247.235815 147.197901 
z
" style="fill-opacity:0.4;"/>
    <path clip-path="url(#p829e18f862)" d="M 227.360807 159.705994 
L 232.61913 158.59713 
L 241.960825 148.327636 
L 236.707806 149.452665 
L 227.360807 159.705994 
z
" style="fill-opacity:0.4;"/>
    <path clip-path="url(#p829e18f862)" d="M 207.464084 172.227753 
L 212.683545 171.144551 
L 222.124442 160.810228 
L 216.909899 161.90986 
L 207.464084 172.227753 
z
" style="fill-opacity:0.4;"/>
    <path clip-path="url(#p829e18f862)" d="M 252.532913 146.063431 
L 257.852259 144.924196 
L 267.089144 134.703451 
L 261.775617 135.858631 
L 252.532913 146.063431 
z
" style="fill-opacity:0.4;"/>
    <path clip-path="url(#p829e18f862)" d="M 232.61913 158.59713 
L 237.899551 157.483605 
L 247.235815 147.197901 
L 241.960825 148.327636 
L 232.61913 158.59713 
z
" style="fill-opacity:0.4;"/>
    <path clip-path="url(#p829e18f862)" d="M 212.683545 171.144551 
L 217.924951 170.056795 
L 227.360807 159.705994 
L 222.124442 160.810228 
L 212.683545 171.144551 
z
" style="fill-opacity:0.4;"/>
    <path clip-path="url(#p829e18f862)" d="M 192.72612 183.705718 
L 197.928424 182.643787 
L 207.464084 172.227753 
L 202.266432 173.306429 
L 192.72612 183.705718 
z
" style="fill-opacity:0.4;"/>
    <path clip-path="url(#p829e18f862)" d="M 257.852259 144.924196 
L 263.193994 143.780166 
L 272.424929 133.543432 
L 267.089144 134.703451 
L 257.852259 144.924196 
z
" style="fill-opacity:0.4;"/>
    <path clip-path="url(#p829e18f862)" d="M 237.899551 157.483605 
L 243.202208 156.365392 
L 252.532913 146.063431 
L 247.235815 147.197901 
L 237.899551 157.483605 
z
" style="fill-opacity:0.4;"/>
    <path clip-path="url(#p829e18f862)" d="M 217.924951 170.056795 
L 223.188442 168.964455 
L 232.61913 158.59713 
L 227.360807 159.705994 
L 217.924951 170.056795 
z
" style="fill-opacity:0.4;"/>
    <path clip-path="url(#p829e18f862)" d="M 197.928424 182.643787 
L 203.152659 181.577378 
L 212.683545 171.144551 
L 207.464084 172.227753 
L 197.928424 182.643787 
z
" style="fill-opacity:0.4;"/>
    <path clip-path="url(#p829e18f862)" d="M 263.193994 143.780166 
L 268.558258 142.631311 
L 277.783113 132.378543 
L 272.424929 133.543432 
L 263.193994 143.780166 
z
" style="fill-opacity:0.4;"/>
    <path clip-path="url(#p829e18f862)" d="M 243.202208 156.365392 
L 248.527243 155.24246 
L 257.852259 144.924196 
L 252.532913 146.063431 
L 243.202208 156.365392 
z
" style="fill-opacity:0.4;"/>
    <path clip-path="url(#p829e18f862)" d="M 223.188442 168.964455 
L 228.474158 167.867503 
L 237.899551 157.483605 
L 232.61913 158.59713 
L 223.188442 168.964455 
z
" style="fill-opacity:0.4;"/>
    <path clip-path="url(#p829e18f862)" d="M 203.152659 181.577378 
L 208.398966 180.506465 
L 217.924951 170.056795 
L 212.683545 171.144551 
L 203.152659 181.577378 
z
" style="fill-opacity:0.4;"/>
    <path clip-path="url(#p829e18f862)" d="M 268.558258 142.631311 
L 273.945196 141.4776 
L 283.163835 131.208754 
L 277.783113 132.378543 
L 268.558258 142.631311 
z
" style="fill-opacity:0.4;"/>
    <path clip-path="url(#p829e18f862)" d="M 183.094824 194.204184 
L 188.301631 193.159367 
L 197.928424 182.643787 
L 192.72612 183.705718 
L 183.094824 194.204184 
z
" style="fill-opacity:0.4;"/>
    <path clip-path="url(#p829e18f862)" d="M 248.527243 155.24246 
L 253.874797 154.114778 
L 263.193994 143.780166 
L 257.852259 144.924196 
L 248.527243 155.24246 
z
" style="fill-opacity:0.4;"/>
    <path clip-path="url(#p829e18f862)" d="M 228.474158 167.867503 
L 233.782239 166.76591 
L 243.202208 156.365392 
L 237.899551 157.483605 
L 228.474158 167.867503 
z
" style="fill-opacity:0.4;"/>
    <path clip-path="url(#p829e18f862)" d="M 208.398966 180.506465 
L 213.667483 179.431017 
L 223.188442 168.964455 
L 217.924951 170.056795 
L 208.398966 180.506465 
z
" style="fill-opacity:0.4;"/>
    <path clip-path="url(#p829e18f862)" d="M 273.945196 141.4776 
L 279.35495 140.319003 
L 288.56724 130.034034 
L 283.163835 131.208754 
L 273.945196 141.4776 
z
" style="fill-opacity:0.4;"/>
    <path clip-path="url(#p829e18f862)" d="M 188.301631 193.159367 
L 193.530494 192.110124 
L 203.152659 181.577378 
L 197.928424 182.643787 
L 188.301631 193.159367 
z
" style="fill-opacity:0.4;"/>
    <path clip-path="url(#p829e18f862)" d="M 253.874797 154.114778 
L 259.245014 152.982318 
L 268.558258 142.631311 
L 263.193994 143.780166 
L 253.874797 154.114778 
z
" style="fill-opacity:0.4;"/>
    <path clip-path="url(#p829e18f862)" d="M 233.782239 166.76591 
L 239.112828 165.659645 
L 248.527243 155.24246 
L 243.202208 156.365392 
L 233.782239 166.76591 
z
" style="fill-opacity:0.4;"/>
    <path clip-path="url(#p829e18f862)" d="M 213.667483 179.431017 
L 218.958353 178.351007 
L 228.474158 167.867503 
L 223.188442 168.964455 
L 213.667483 179.431017 
z
" style="fill-opacity:0.4;"/>
    <path clip-path="url(#p829e18f862)" d="M 279.35495 140.319003 
L 284.787666 139.155488 
L 293.99347 128.854352 
L 288.56724 130.034034 
L 279.35495 140.319003 
z
" style="fill-opacity:0.4;"/>
    <path clip-path="url(#p829e18f862)" d="M 193.530494 192.110124 
L 198.781554 191.056427 
L 208.398966 180.506465 
L 203.152659 181.577378 
L 193.530494 192.110124 
z
" style="fill-opacity:0.4;"/>
    <path clip-path="url(#p829e18f862)" d="M 259.245014 152.982318 
L 264.638038 151.845048 
L 273.945196 141.4776 
L 268.558258 142.631311 
L 259.245014 152.982318 
z
" style="fill-opacity:0.4;"/>
    <path clip-path="url(#p829e18f862)" d="M 173.371234 204.803253 
L 178.582392 203.775928 
L 188.301631 193.159367 
L 183.094824 194.204184 
L 173.371234 204.803253 
z
" style="fill-opacity:0.4;"/>
    <path clip-path="url(#p829e18f862)" d="M 239.112828 165.659645 
L 244.466068 164.54868 
L 253.874797 154.114778 
L 248.527243 155.24246 
L 239.112828 165.659645 
z
" style="fill-opacity:0.4;"/>
    <path clip-path="url(#p829e18f862)" d="M 218.958353 178.351007 
L 224.271718 177.266405 
L 233.782239 166.76591 
L 228.474158 167.867503 
L 218.958353 178.351007 
z
" style="fill-opacity:0.4;"/>
    <path clip-path="url(#p829e18f862)" d="M 284.787666 139.155488 
L 290.243491 137.987023 
L 299.442671 127.669676 
L 293.99347 128.854352 
L 284.787666 139.155488 
z
" style="fill-opacity:0.4;"/>
    <path clip-path="url(#p829e18f862)" d="M 198.781554 191.056427 
L 204.054951 189.998247 
L 213.667483 179.431017 
L 208.398966 180.506465 
L 198.781554 191.056427 
z
" style="fill-opacity:0.4;"/>
    <path clip-path="url(#p829e18f862)" d="M 264.638038 151.845048 
L 270.054014 150.702939 
L 279.35495 140.319003 
L 273.945196 141.4776 
L 264.638038 151.845048 
z
" style="fill-opacity:0.4;"/>
    <path clip-path="url(#p829e18f862)" d="M 178.582392 203.775928 
L 183.815731 202.74423 
L 193.530494 192.110124 
L 188.301631 193.159367 
L 178.582392 203.775928 
z
" style="fill-opacity:0.4;"/>
    <path clip-path="url(#p829e18f862)" d="M 244.466068 164.54868 
L 249.842104 163.432983 
L 259.245014 152.982318 
L 253.874797 154.114778 
L 244.466068 164.54868 
z
" style="fill-opacity:0.4;"/>
    <path clip-path="url(#p829e18f862)" d="M 224.271718 177.266405 
L 229.607721 176.177181 
L 239.112828 165.659645 
L 233.782239 166.76591 
L 224.271718 177.266405 
z
" style="fill-opacity:0.4;"/>
    <path clip-path="url(#p829e18f862)" d="M 290.243491 137.987023 
L 295.722572 136.813578 
L 304.914989 126.479974 
L 299.442671 127.669676 
L 290.243491 137.987023 
z
" style="fill-opacity:0.4;"/>
    <path clip-path="url(#p829e18f862)" d="M 204.054951 189.998247 
L 209.35083 188.935556 
L 218.958353 178.351007 
L 213.667483 179.431017 
L 204.054951 189.998247 
z
" style="fill-opacity:0.4;"/>
    <path clip-path="url(#p829e18f862)" d="M 270.054014 150.702939 
L 275.49309 149.555957 
L 284.787666 139.155488 
L 279.35495 140.319003 
L 270.054014 150.702939 
z
" style="fill-opacity:0.4;"/>
    <path clip-path="url(#p829e18f862)" d="M 183.815731 202.74423 
L 189.071392 201.708132 
L 198.781554 191.056427 
L 193.530494 192.110124 
L 183.815731 202.74423 
z
" style="fill-opacity:0.4;"/>
    <path clip-path="url(#p829e18f862)" d="M 249.842104 163.432983 
L 255.241081 162.312526 
L 264.638038 151.845048 
L 259.245014 152.982318 
L 249.842104 163.432983 
z
" style="fill-opacity:0.4;"/>
    <path clip-path="url(#p829e18f862)" d="M 163.554019 215.504378 
L 168.76937 214.494931 
L 178.582392 203.775928 
L 173.371234 204.803253 
L 163.554019 215.504378 
z
" style="fill-opacity:0.4;"/>
    <path clip-path="url(#p829e18f862)" d="M 229.607721 176.177181 
L 234.966508 175.083307 
L 244.466068 164.54868 
L 239.112828 165.659645 
L 229.607721 176.177181 
z
" style="fill-opacity:0.4;"/>
    <path clip-path="url(#p829e18f862)" d="M 295.722572 136.813578 
L 301.225059 135.63512 
L 310.410571 125.285214 
L 304.914989 126.479974 
L 295.722572 136.813578 
z
" style="fill-opacity:0.4;"/>
    <path clip-path="url(#p829e18f862)" d="M 209.35083 188.935556 
L 214.669333 187.868325 
L 224.271718 177.266405 
L 218.958353 178.351007 
L 209.35083 188.935556 
z
" style="fill-opacity:0.4;"/>
    <path clip-path="url(#p829e18f862)" d="M 275.49309 149.555957 
L 280.955413 148.404074 
L 290.243491 137.987023 
L 284.787666 139.155488 
L 275.49309 149.555957 
z
" style="fill-opacity:0.4;"/>
    <path clip-path="url(#p829e18f862)" d="M 189.071392 201.708132 
L 194.349519 200.667604 
L 204.054951 189.998247 
L 198.781554 191.056427 
L 189.071392 201.708132 
z
" style="fill-opacity:0.4;"/>
    <path clip-path="url(#p829e18f862)" d="M 255.241081 162.312526 
L 260.663148 161.187277 
L 270.054014 150.702939 
L 264.638038 151.845048 
L 255.241081 162.312526 
z
" style="fill-opacity:0.4;"/>
    <path clip-path="url(#p829e18f862)" d="M 168.76937 214.494931 
L 174.007026 213.481167 
L 183.815731 202.74423 
L 178.582392 203.775928 
L 168.76937 214.494931 
z
" style="fill-opacity:0.4;"/>
    <path clip-path="url(#p829e18f862)" d="M 234.966508 175.083307 
L 240.348225 173.984753 
L 249.842104 163.432983 
L 244.466068 164.54868 
L 234.966508 175.083307 
z
" style="fill-opacity:0.4;"/>
    <path clip-path="url(#p829e18f862)" d="M 301.225059 135.63512 
L 306.751102 134.451618 
L 315.929566 124.085365 
L 310.410571 125.285214 
L 301.225059 135.63512 
z
" style="fill-opacity:0.4;"/>
    <path clip-path="url(#p829e18f862)" d="M 214.669333 187.868325 
L 220.010607 186.796526 
L 229.607721 176.177181 
L 224.271718 177.266405 
L 214.669333 187.868325 
z
" style="fill-opacity:0.4;"/>
    <path clip-path="url(#p829e18f862)" d="M 280.955413 148.404074 
L 286.441133 147.247257 
L 295.722572 136.813578 
L 290.243491 137.987023 
L 280.955413 148.404074 
z
" style="fill-opacity:0.4;"/>
    <path clip-path="url(#p829e18f862)" d="M 194.349519 200.667604 
L 199.650255 199.62262 
L 209.35083 188.935556 
L 204.054951 189.998247 
L 194.349519 200.667604 
z
" style="fill-opacity:0.4;"/>
    <path clip-path="url(#p829e18f862)" d="M 260.663148 161.187277 
L 266.108452 160.057205 
L 275.49309 149.555957 
L 270.054014 150.702939 
L 260.663148 161.187277 
z
" style="fill-opacity:0.4;"/>
    <path clip-path="url(#p829e18f862)" d="M 174.007026 213.481167 
L 179.267132 212.463059 
L 189.071392 201.708132 
L 183.815731 202.74423 
L 174.007026 213.481167 
z
" style="fill-opacity:0.4;"/>
    <path clip-path="url(#p829e18f862)" d="M 240.348225 173.984753 
L 245.753019 172.881487 
L 255.241081 162.312526 
L 249.842104 163.432983 
L 240.348225 173.984753 
z
" style="fill-opacity:0.4;"/>
    <path clip-path="url(#p829e18f862)" d="M 153.641818 226.309039 
L 158.861199 225.317867 
L 168.76937 214.494931 
L 163.554019 215.504378 
L 153.641818 226.309039 
z
" style="fill-opacity:0.4;"/>
    <path clip-path="url(#p829e18f862)" d="M 306.751102 134.451618 
L 312.300852 133.263038 
L 321.472123 122.880392 
L 315.929566 124.085365 
L 306.751102 134.451618 
z
" style="fill-opacity:0.4;"/>
    <path clip-path="url(#p829e18f862)" d="M 220.010607 186.796526 
L 225.374797 185.720127 
L 234.966508 175.083307 
L 229.607721 176.177181 
L 220.010607 186.796526 
z
" style="fill-opacity:0.4;"/>
    <path clip-path="url(#p829e18f862)" d="M 286.441133 147.247257 
L 291.950401 146.085474 
L 301.225059 135.63512 
L 295.722572 136.813578 
L 286.441133 147.247257 
z
" style="fill-opacity:0.4;"/>
    <path clip-path="url(#p829e18f862)" d="M 199.650255 199.62262 
L 204.973748 198.573149 
L 214.669333 187.868325 
L 209.35083 188.935556 
L 199.650255 199.62262 
z
" style="fill-opacity:0.4;"/>
    <path clip-path="url(#p829e18f862)" d="M 266.108452 160.057205 
L 271.577143 158.92228 
L 280.955413 148.404074 
L 275.49309 149.555957 
L 266.108452 160.057205 
z
" style="fill-opacity:0.4;"/>
    <path clip-path="url(#p829e18f862)" d="M 179.267132 212.463059 
L 184.549832 211.440577 
L 194.349519 200.667604 
L 189.071392 201.708132 
L 179.267132 212.463059 
z
" style="fill-opacity:0.4;"/>
    <path clip-path="url(#p829e18f862)" d="M 245.753019 172.881487 
L 251.18104 171.773481 
L 260.663148 161.187277 
L 255.241081 162.312526 
L 245.753019 172.881487 
z
" style="fill-opacity:0.4;"/>
    <path clip-path="url(#p829e18f862)" d="M 158.861199 225.317867 
L 164.103011 224.322435 
L 174.007026 213.481167 
L 168.76937 214.494931 
L 158.861199 225.317867 
z
" style="fill-opacity:0.4;"/>
    <path clip-path="url(#p829e18f862)" d="M 312.300852 133.263038 
L 317.874462 132.069348 
L 327.038395 121.670265 
L 321.472123 122.880392 
L 312.300852 133.263038 
z
" style="fill-opacity:0.4;"/>
    <path clip-path="url(#p829e18f862)" d="M 225.374797 185.720127 
L 230.762052 184.6391 
L 240.348225 173.984753 
L 234.966508 175.083307 
L 225.374797 185.720127 
z
" style="fill-opacity:0.4;"/>
    <path clip-path="url(#p829e18f862)" d="M 291.950401 146.085474 
L 297.483368 144.918693 
L 306.751102 134.451618 
L 301.225059 135.63512 
L 291.950401 146.085474 
z
" style="fill-opacity:0.4;"/>
    <path clip-path="url(#p829e18f862)" d="M 204.973748 198.573149 
L 210.320142 197.519163 
L 220.010607 186.796526 
L 214.669333 187.868325 
L 204.973748 198.573149 
z
" style="fill-opacity:0.4;"/>
    <path clip-path="url(#p829e18f862)" d="M 271.577143 158.92228 
L 277.069373 157.78247 
L 286.441133 147.247257 
L 280.955413 148.404074 
L 271.577143 158.92228 
z
" style="fill-opacity:0.4;"/>
    <path clip-path="url(#p829e18f862)" d="M 184.549832 211.440577 
L 189.855271 210.413693 
L 199.650255 199.62262 
L 194.349519 200.667604 
L 184.549832 211.440577 
z
" style="fill-opacity:0.4;"/>
    <path clip-path="url(#p829e18f862)" d="M 251.18104 171.773481 
L 256.632436 170.660703 
L 266.108452 160.057205 
L 260.663148 161.187277 
L 251.18104 171.773481 
z
" style="fill-opacity:0.4;"/>
    <path clip-path="url(#p829e18f862)" d="M 164.103011 224.322435 
L 169.3674 223.322715 
L 179.267132 212.463059 
L 174.007026 213.481167 
L 164.103011 224.322435 
z
" style="fill-opacity:0.4;"/>
    <path clip-path="url(#p829e18f862)" d="M 317.874462 132.069348 
L 323.472086 130.870514 
L 332.628533 120.454948 
L 327.038395 121.670265 
L 317.874462 132.069348 
z
" style="fill-opacity:0.4;"/>
    <path clip-path="url(#p829e18f862)" d="M 230.762052 184.6391 
L 236.172521 183.553416 
L 245.753019 172.881487 
L 240.348225 173.984753 
L 230.762052 184.6391 
z
" style="fill-opacity:0.4;"/>
    <path clip-path="url(#p829e18f862)" d="M 143.633248 237.218747 
L 148.85649 236.246253 
L 158.861199 225.317867 
L 153.641818 226.309039 
L 143.633248 237.218747 
z
" style="fill-opacity:0.4;"/>
    <path clip-path="url(#p829e18f862)" d="M 297.483368 144.918693 
L 303.040188 143.746882 
L 312.300852 133.263038 
L 306.751102 134.451618 
L 297.483368 144.918693 
z
" style="fill-opacity:0.4;"/>
    <path clip-path="url(#p829e18f862)" d="M 210.320142 197.519163 
L 215.689588 196.460633 
L 225.374797 185.720127 
L 220.010607 186.796526 
L 210.320142 197.519163 
z
" style="fill-opacity:0.4;"/>
    <path clip-path="url(#p829e18f862)" d="M 277.069373 157.78247 
L 282.585292 156.637743 
L 291.950401 146.085474 
L 286.441133 147.247257 
L 277.069373 157.78247 
z
" style="fill-opacity:0.4;"/>
    <path clip-path="url(#p829e18f862)" d="M 189.855271 210.413693 
L 195.183598 209.38238 
L 204.973748 198.573149 
L 199.650255 199.62262 
L 189.855271 210.413693 
z
" style="fill-opacity:0.4;"/>
    <path clip-path="url(#p829e18f862)" d="M 256.632436 170.660703 
L 262.107361 169.543122 
L 271.577143 158.92228 
L 266.108452 160.057205 
L 256.632436 170.660703 
z
" style="fill-opacity:0.4;"/>
    <path clip-path="url(#p829e18f862)" d="M 169.3674 223.322715 
L 174.654511 222.318681 
L 184.549832 211.440577 
L 179.267132 212.463059 
L 169.3674 223.322715 
z
" style="fill-opacity:0.4;"/>
    <path clip-path="url(#p829e18f862)" d="M 323.472086 130.870514 
L 329.09388 129.666505 
L 338.242692 119.23441 
L 332.628533 120.454948 
L 323.472086 130.870514 
z
" style="fill-opacity:0.4;"/>
    <path clip-path="url(#p829e18f862)" d="M 236.172521 183.553416 
L 241.606354 182.463042 
L 251.18104 171.773481 
L 245.753019 172.881487 
L 236.172521 183.553416 
z
" style="fill-opacity:0.4;"/>
    <path clip-path="url(#p829e18f862)" d="M 148.85649 236.246253 
L 154.10229 235.26956 
L 164.103011 224.322435 
L 158.861199 225.317867 
L 148.85649 236.246253 
z
" style="fill-opacity:0.4;"/>
    <path clip-path="url(#p829e18f862)" d="M 303.040188 143.746882 
L 308.621015 142.570009 
L 317.874462 132.069348 
L 312.300852 133.263038 
L 303.040188 143.746882 
z
" style="fill-opacity:0.4;"/>
    <path clip-path="url(#p829e18f862)" d="M 215.689588 196.460633 
L 221.082233 195.39753 
L 230.762052 184.6391 
L 225.374797 185.720127 
L 215.689588 196.460633 
z
" style="fill-opacity:0.4;"/>
    <path clip-path="url(#p829e18f862)" d="M 282.585292 156.637743 
L 288.125056 155.488068 
L 297.483368 144.918693 
L 291.950401 146.085474 
L 282.585292 156.637743 
z
" style="fill-opacity:0.4;"/>
    <path clip-path="url(#p829e18f862)" d="M 195.183598 209.38238 
L 200.534959 208.346608 
L 210.320142 197.519163 
L 204.973748 198.573149 
L 195.183598 209.38238 
z
" style="fill-opacity:0.4;"/>
    <path clip-path="url(#p829e18f862)" d="M 262.107361 169.543122 
L 267.605965 168.420707 
L 277.069373 157.78247 
L 271.577143 158.92228 
L 262.107361 169.543122 
z
" style="fill-opacity:0.4;"/>
    <path clip-path="url(#p829e18f862)" d="M 174.654511 222.318681 
L 179.964493 221.310303 
L 189.855271 210.413693 
L 184.549832 211.440577 
L 174.654511 222.318681 
z
" style="fill-opacity:0.4;"/>
    <path clip-path="url(#p829e18f862)" d="M 329.09388 129.666505 
L 334.740002 128.457285 
L 343.881026 118.008615 
L 338.242692 119.23441 
L 329.09388 129.666505 
z
" style="fill-opacity:0.4;"/>
    <path clip-path="url(#p829e18f862)" d="M 241.606354 182.463042 
L 247.063702 181.367951 
L 256.632436 170.660703 
L 251.18104 171.773481 
L 241.606354 182.463042 
z
" style="fill-opacity:0.4;"/>
    <path clip-path="url(#p829e18f862)" d="M 154.10229 235.26956 
L 159.370795 234.288639 
L 169.3674 223.322715 
L 164.103011 224.322435 
L 154.10229 235.26956 
z
" style="fill-opacity:0.4;"/>
    <path clip-path="url(#p829e18f862)" d="M 308.621015 142.570009 
L 314.226005 141.38804 
L 323.472086 130.870514 
L 317.874462 132.069348 
L 308.621015 142.570009 
z
" style="fill-opacity:0.4;"/>
    <path clip-path="url(#p829e18f862)" d="M 221.082233 195.39753 
L 226.498229 194.329823 
L 236.172521 183.553416 
L 230.762052 184.6391 
L 221.082233 195.39753 
z
" style="fill-opacity:0.4;"/>
    <path clip-path="url(#p829e18f862)" d="M 133.526895 248.235042 
L 138.753825 247.28164 
L 148.85649 236.246253 
L 143.633248 237.218747 
L 133.526895 248.235042 
z
" style="fill-opacity:0.4;"/>
    <path clip-path="url(#p829e18f862)" d="M 288.125056 155.488068 
L 293.688819 154.333413 
L 303.040188 143.746882 
L 297.483368 144.918693 
L 288.125056 155.488068 
z
" style="fill-opacity:0.4;"/>
    <path clip-path="url(#p829e18f862)" d="M 200.534959 208.346608 
L 205.909506 207.306349 
L 215.689588 196.460633 
L 210.320142 197.519163 
L 200.534959 208.346608 
z
" style="fill-opacity:0.4;"/>
    <path clip-path="url(#p829e18f862)" d="M 267.605965 168.420707 
L 273.128403 167.293427 
L 282.585292 156.637743 
L 277.069373 157.78247 
L 267.605965 168.420707 
z
" style="fill-opacity:0.4;"/>
    <path clip-path="url(#p829e18f862)" d="M 179.964493 221.310303 
L 185.297493 220.297554 
L 195.183598 209.38238 
L 189.855271 210.413693 
L 179.964493 221.310303 
z
" style="fill-opacity:0.4;"/>
    <path clip-path="url(#p829e18f862)" d="M 334.740002 128.457285 
L 340.410608 127.242821 
L 349.543692 116.777531 
L 343.881026 118.008615 
L 334.740002 128.457285 
z
" style="fill-opacity:0.4;"/>
    <path clip-path="url(#p829e18f862)" d="M 247.063702 181.367951 
L 252.544719 180.268109 
L 262.107361 169.543122 
L 256.632436 170.660703 
L 247.063702 181.367951 
z
" style="fill-opacity:0.4;"/>
    <path clip-path="url(#p829e18f862)" d="M 159.370795 234.288639 
L 164.662151 233.303463 
L 174.654511 222.318681 
L 169.3674 223.322715 
L 159.370795 234.288639 
z
" style="fill-opacity:0.4;"/>
    <path clip-path="url(#p829e18f862)" d="M 314.226005 141.38804 
L 319.855316 140.200943 
L 329.09388 129.666505 
L 323.472086 130.870514 
L 314.226005 141.38804 
z
" style="fill-opacity:0.4;"/>
    <path clip-path="url(#p829e18f862)" d="M 226.498229 194.329823 
L 231.937728 193.257483 
L 241.606354 182.463042 
L 236.172521 183.553416 
L 226.498229 194.329823 
z
" style="fill-opacity:0.4;"/>
    <path clip-path="url(#p829e18f862)" d="M 138.753825 247.28164 
L 144.00344 246.324101 
L 154.10229 235.26956 
L 148.85649 236.246253 
L 138.753825 247.28164 
z
" style="fill-opacity:0.4;"/>
    <path clip-path="url(#p829e18f862)" d="M 293.688819 154.333413 
L 299.276737 153.173744 
L 308.621015 142.570009 
L 303.040188 143.746882 
L 293.688819 154.333413 
z
" style="fill-opacity:0.4;"/>
    <path clip-path="url(#p829e18f862)" d="M 205.909506 207.306349 
L 211.307388 206.261573 
L 221.082233 195.39753 
L 215.689588 196.460633 
L 205.909506 207.306349 
z
" style="fill-opacity:0.4;"/>
    <path clip-path="url(#p829e18f862)" d="M 273.128403 167.293427 
L 278.674831 166.161251 
L 288.125056 155.488068 
L 282.585292 156.637743 
L 273.128403 167.293427 
z
" style="fill-opacity:0.4;"/>
    <path clip-path="url(#p829e18f862)" d="M 185.297493 220.297554 
L 190.653661 219.280406 
L 200.534959 208.346608 
L 195.183598 209.38238 
L 185.297493 220.297554 
z
" style="fill-opacity:0.4;"/>
    <path clip-path="url(#p829e18f862)" d="M 340.410608 127.242821 
L 346.105859 126.02308 
L 355.230848 115.541123 
L 349.543692 116.777531 
L 340.410608 127.242821 
z
" style="fill-opacity:0.4;"/>
    <path clip-path="url(#p829e18f862)" d="M 252.544719 180.268109 
L 258.04956 179.163487 
L 267.605965 168.420707 
L 262.107361 169.543122 
L 252.544719 180.268109 
z
" style="fill-opacity:0.4;"/>
    <path clip-path="url(#p829e18f862)" d="M 164.662151 233.303463 
L 169.976507 232.314005 
L 179.964493 221.310303 
L 174.654511 222.318681 
L 164.662151 233.303463 
z
" style="fill-opacity:0.4;"/>
    <path clip-path="url(#p829e18f862)" d="M 319.855316 140.200943 
L 325.509105 139.008683 
L 334.740002 128.457285 
L 329.09388 129.666505 
L 319.855316 140.200943 
z
" style="fill-opacity:0.4;"/>
    <path clip-path="url(#p829e18f862)" d="M 231.937728 193.257483 
L 237.400882 192.180479 
L 247.063702 181.367951 
L 241.606354 182.463042 
L 231.937728 193.257483 
z
" style="fill-opacity:0.4;"/>
    <path clip-path="url(#p829e18f862)" d="M 144.00344 246.324101 
L 149.275886 245.362397 
L 159.370795 234.288639 
L 154.10229 235.26956 
L 144.00344 246.324101 
z
" style="fill-opacity:0.4;"/>
    <path clip-path="url(#p829e18f862)" d="M 299.276737 153.173744 
L 304.888967 152.00903 
L 314.226005 141.38804 
L 308.621015 142.570009 
L 299.276737 153.173744 
z
" style="fill-opacity:0.4;"/>
    <path clip-path="url(#p829e18f862)" d="M 211.307388 206.261573 
L 216.728759 205.212251 
L 226.498229 194.329823 
L 221.082233 195.39753 
L 211.307388 206.261573 
z
" style="fill-opacity:0.4;"/>
    <path clip-path="url(#p829e18f862)" d="M 278.674831 166.161251 
L 284.245405 165.024145 
L 293.688819 154.333413 
L 288.125056 155.488068 
L 278.674831 166.161251 
z
" style="fill-opacity:0.4;"/>
    <path clip-path="url(#p829e18f862)" d="M 190.653661 219.280406 
L 196.03315 218.258829 
L 205.909506 207.306349 
L 200.534959 208.346608 
L 190.653661 219.280406 
z
" style="fill-opacity:0.4;"/>
    <path clip-path="url(#p829e18f862)" d="M 346.105859 126.02308 
L 351.825916 124.798025 
L 360.942653 114.299355 
L 355.230848 115.541123 
L 346.105859 126.02308 
z
" style="fill-opacity:0.4;"/>
    <path clip-path="url(#p829e18f862)" d="M 258.04956 179.163487 
L 263.578378 178.054054 
L 273.128403 167.293427 
L 267.605965 168.420707 
L 258.04956 179.163487 
z
" style="fill-opacity:0.4;"/>
    <path clip-path="url(#p829e18f862)" d="M 169.976507 232.314005 
L 175.314015 231.320237 
L 185.297493 220.297554 
L 179.964493 221.310303 
L 169.976507 232.314005 
z
" style="fill-opacity:0.4;"/>
    <path clip-path="url(#p829e18f862)" d="M 325.509105 139.008683 
L 331.187534 137.811228 
L 340.410608 127.242821 
L 334.740002 128.457285 
L 325.509105 139.008683 
z
" style="fill-opacity:0.4;"/>
    <path clip-path="url(#p829e18f862)" d="M 237.400882 192.180479 
L 242.887847 191.098782 
L 252.544719 180.268109 
L 247.063702 181.367951 
L 237.400882 192.180479 
z
" style="fill-opacity:0.4;"/>
    <path clip-path="url(#p829e18f862)" d="M 149.275886 245.362397 
L 154.571315 244.396501 
L 164.662151 233.303463 
L 159.370795 234.288639 
L 149.275886 245.362397 
z
" style="fill-opacity:0.4;"/>
    <path clip-path="url(#p829e18f862)" d="M 304.888967 152.00903 
L 310.52567 150.839237 
L 319.855316 140.200943 
L 314.226005 141.38804 
L 304.888967 152.00903 
z
" style="fill-opacity:0.4;"/>
    <path clip-path="url(#p829e18f862)" d="M 216.728759 205.212251 
L 222.173772 204.158353 
L 231.937728 193.257483 
L 226.498229 194.329823 
L 216.728759 205.212251 
z
" style="fill-opacity:0.4;"/>
    <path clip-path="url(#p829e18f862)" d="M 284.245405 165.024145 
L 289.840283 163.882079 
L 299.276737 153.173744 
L 293.688819 154.333413 
L 284.245405 165.024145 
z
" style="fill-opacity:0.4;"/>
    <path clip-path="url(#p829e18f862)" d="M 196.03315 218.258829 
L 201.436111 217.232794 
L 211.307388 206.261573 
L 205.909506 207.306349 
L 196.03315 218.258829 
z
" style="fill-opacity:0.4;"/>
    <path clip-path="url(#p829e18f862)" d="M 351.825916 124.798025 
L 357.57094 123.567624 
L 366.679267 113.052194 
L 360.942653 114.299355 
L 351.825916 124.798025 
z
" style="fill-opacity:0.4;"/>
    <path clip-path="url(#p829e18f862)" d="M 263.578378 178.054054 
L 269.131333 176.939778 
L 278.674831 166.161251 
L 273.128403 167.293427 
L 263.578378 178.054054 
z
" style="fill-opacity:0.4;"/>
    <path clip-path="url(#p829e18f862)" d="M 175.314015 231.320237 
L 180.674826 230.32213 
L 190.653661 219.280406 
L 185.297493 220.297554 
L 175.314015 231.320237 
z
" style="fill-opacity:0.4;"/>
    <path clip-path="url(#p829e18f862)" d="M 331.187534 137.811228 
L 336.890764 136.608543 
L 346.105859 126.02308 
L 340.410608 127.242821 
L 331.187534 137.811228 
z
" style="fill-opacity:0.4;"/>
    <path clip-path="url(#p829e18f862)" d="M 242.887847 191.098782 
L 248.398779 190.012359 
L 258.04956 179.163487 
L 252.544719 180.268109 
L 242.887847 191.098782 
z
" style="fill-opacity:0.4;"/>
    <path clip-path="url(#p829e18f862)" d="M 154.571315 244.396501 
L 159.889875 243.426386 
L 169.976507 232.314005 
L 164.662151 233.303463 
L 154.571315 244.396501 
z
" style="fill-opacity:0.4;"/>
    <path clip-path="url(#p829e18f862)" d="M 310.52567 150.839237 
L 316.187005 149.664332 
L 325.509105 139.008683 
L 319.855316 140.200943 
L 310.52567 150.839237 
z
" style="fill-opacity:0.4;"/>
    <path clip-path="url(#p829e18f862)" d="M 222.173772 204.158353 
L 227.642581 203.099849 
L 237.400882 192.180479 
L 231.937728 193.257483 
L 222.173772 204.158353 
z
" style="fill-opacity:0.4;"/>
    <path clip-path="url(#p829e18f862)" d="M 289.840283 163.882079 
L 295.459625 162.735018 
L 304.888967 152.00903 
L 299.276737 153.173744 
L 289.840283 163.882079 
z
" style="fill-opacity:0.4;"/>
    <path clip-path="url(#p829e18f862)" d="M 201.436111 217.232794 
L 206.862699 216.202273 
L 216.728759 205.212251 
L 211.307388 206.261573 
L 201.436111 217.232794 
z
" style="fill-opacity:0.4;"/>
    <path clip-path="url(#p829e18f862)" d="M 357.57094 123.567624 
L 363.341097 122.33184 
L 372.440854 111.799604 
L 366.679267 113.052194 
L 357.57094 123.567624 
z
" style="fill-opacity:0.4;"/>
    <path clip-path="url(#p829e18f862)" d="M 269.131333 176.939778 
L 274.708581 175.820626 
L 284.245405 165.024145 
L 278.674831 166.161251 
L 269.131333 176.939778 
z
" style="fill-opacity:0.4;"/>
    <path clip-path="url(#p829e18f862)" d="M 180.674826 230.32213 
L 186.059092 229.319656 
L 196.03315 218.258829 
L 190.653661 219.280406 
L 180.674826 230.32213 
z
" style="fill-opacity:0.4;"/>
    <path clip-path="url(#p829e18f862)" d="M 336.890764 136.608543 
L 342.618957 135.400593 
L 351.825916 124.798025 
L 346.105859 126.02308 
L 336.890764 136.608543 
z
" style="fill-opacity:0.4;"/>
    <path clip-path="url(#p829e18f862)" d="M 248.398779 190.012359 
L 253.933835 188.921181 
L 263.578378 178.054054 
L 258.04956 179.163487 
L 248.398779 190.012359 
z
" style="fill-opacity:0.4;"/>
    <path clip-path="url(#p829e18f862)" d="M 159.889875 243.426386 
L 165.23172 242.452024 
L 175.314015 231.320237 
L 169.976507 232.314005 
L 159.889875 243.426386 
z
" style="fill-opacity:0.4;"/>
    <path clip-path="url(#p829e18f862)" d="M 316.187005 149.664332 
L 321.873135 148.484282 
L 331.187534 137.811228 
L 325.509105 139.008683 
L 316.187005 149.664332 
z
" style="fill-opacity:0.4;"/>
    <path clip-path="url(#p829e18f862)" d="M 227.642581 203.099849 
L 233.135344 202.036709 
L 242.887847 191.098782 
L 237.400882 192.180479 
L 227.642581 203.099849 
z
" style="fill-opacity:0.4;"/>
    <path clip-path="url(#p829e18f862)" d="M 295.459625 162.735018 
L 301.103591 161.582932 
L 310.52567 150.839237 
L 304.888967 152.00903 
L 295.459625 162.735018 
z
" style="fill-opacity:0.4;"/>
    <path clip-path="url(#p829e18f862)" d="M 206.862699 216.202273 
L 212.313069 215.167235 
L 222.173772 204.158353 
L 216.728759 205.212251 
L 206.862699 216.202273 
z
" style="fill-opacity:0.4;"/>
    <path clip-path="url(#p829e18f862)" d="M 363.341097 122.33184 
L 369.136551 121.090637 
L 378.227575 110.54155 
L 372.440854 111.799604 
L 363.341097 122.33184 
z
" style="fill-opacity:0.4;"/>
    <path clip-path="url(#p829e18f862)" d="M 274.708581 175.820626 
L 280.310284 174.696568 
L 289.840283 163.882079 
L 284.245405 165.024145 
L 274.708581 175.820626 
z
" style="fill-opacity:0.4;"/>
    <path clip-path="url(#p829e18f862)" d="M 186.059092 229.319656 
L 191.466969 228.312786 
L 201.436111 217.232794 
L 196.03315 218.258829 
L 186.059092 229.319656 
z
" style="fill-opacity:0.4;"/>
    <path clip-path="url(#p829e18f862)" d="M 342.618957 135.400593 
L 348.372277 134.187345 
L 357.57094 123.567624 
L 351.825916 124.798025 
L 342.618957 135.400593 
z
" style="fill-opacity:0.4;"/>
    <path clip-path="url(#p829e18f862)" d="M 253.933835 188.921181 
L 259.493173 187.825216 
L 269.131333 176.939778 
L 263.578378 178.054054 
L 253.933835 188.921181 
z
" style="fill-opacity:0.4;"/>
    <path clip-path="url(#p829e18f862)" d="M 165.23172 242.452024 
L 170.597002 241.473387 
L 180.674826 230.32213 
L 175.314015 231.320237 
L 165.23172 242.452024 
z
" style="fill-opacity:0.4;"/>
    <path clip-path="url(#p829e18f862)" d="M 321.873135 148.484282 
L 327.584221 147.299052 
L 336.890764 136.608543 
L 331.187534 137.811228 
L 321.873135 148.484282 
z
" style="fill-opacity:0.4;"/>
    <path clip-path="url(#p829e18f862)" d="M 233.135344 202.036709 
L 238.652218 200.968902 
L 248.398779 190.012359 
L 242.887847 191.098782 
L 233.135344 202.036709 
z
" style="fill-opacity:0.4;"/>
    <path clip-path="url(#p829e18f862)" d="M 301.103591 161.582932 
L 306.772343 160.425785 
L 316.187005 149.664332 
L 310.52567 150.839237 
L 301.103591 161.582932 
z
" style="fill-opacity:0.4;"/>
    <path clip-path="url(#p829e18f862)" d="M 212.313069 215.167235 
L 217.787378 214.127651 
L 227.642581 203.099849 
L 222.173772 204.158353 
L 212.313069 215.167235 
z
" style="fill-opacity:0.4;"/>
    <path clip-path="url(#p829e18f862)" d="M 369.136551 121.090637 
L 374.957469 119.843982 
L 384.039597 109.277995 
L 378.227575 110.54155 
L 369.136551 121.090637 
z
" style="fill-opacity:0.4;"/>
    <path clip-path="url(#p829e18f862)" d="M 280.310284 174.696568 
L 285.936601 173.56757 
L 295.459625 162.735018 
L 289.840283 163.882079 
L 280.310284 174.696568 
z
" style="fill-opacity:0.4;"/>
    <path clip-path="url(#p829e18f862)" d="M 191.466969 228.312786 
L 196.898611 227.301491 
L 206.862699 216.202273 
L 201.436111 217.232794 
L 191.466969 228.312786 
z
" style="fill-opacity:0.4;"/>
    <path clip-path="url(#p829e18f862)" d="M 348.372277 134.187345 
L 354.150891 132.968763 
L 363.341097 122.33184 
L 357.57094 123.567624 
L 348.372277 134.187345 
z
" style="fill-opacity:0.4;"/>
    <path clip-path="url(#p829e18f862)" d="M 259.493173 187.825216 
L 265.076954 186.724432 
L 274.708581 175.820626 
L 269.131333 176.939778 
L 259.493173 187.825216 
z
" style="fill-opacity:0.4;"/>
    <path clip-path="url(#p829e18f862)" d="M 170.597002 241.473387 
L 175.985876 240.490446 
L 186.059092 229.319656 
L 180.674826 230.32213 
L 170.597002 241.473387 
z
" style="fill-opacity:0.4;"/>
    <path clip-path="url(#p829e18f862)" d="M 327.584221 147.299052 
L 333.32043 146.108609 
L 342.618957 135.400593 
L 336.890764 136.608543 
L 327.584221 147.299052 
z
" style="fill-opacity:0.4;"/>
    <path clip-path="url(#p829e18f862)" d="M 238.652218 200.968902 
L 244.193362 199.896397 
L 253.933835 188.921181 
L 248.398779 190.012359 
L 238.652218 200.968902 
z
" style="fill-opacity:0.4;"/>
    <path clip-path="url(#p829e18f862)" d="M 306.772343 160.425785 
L 312.466045 159.263546 
L 321.873135 148.484282 
L 316.187005 149.664332 
L 306.772343 160.425785 
z
" style="fill-opacity:0.4;"/>
    <path clip-path="url(#p829e18f862)" d="M 217.787378 214.127651 
L 223.285783 213.083492 
L 233.135344 202.036709 
L 227.642581 203.099849 
L 217.787378 214.127651 
z
" style="fill-opacity:0.4;"/>
    <path clip-path="url(#p829e18f862)" d="M 374.957469 119.843982 
L 380.804019 118.591837 
L 389.877084 108.008904 
L 384.039597 109.277995 
L 374.957469 119.843982 
z
" style="fill-opacity:0.4;"/>
    <path clip-path="url(#p829e18f862)" d="M 285.936601 173.56757 
L 291.587696 172.4336 
L 301.103591 161.582932 
L 295.459625 162.735018 
L 285.936601 173.56757 
z
" style="fill-opacity:0.4;"/>
    <path clip-path="url(#p829e18f862)" d="M 196.898611 227.301491 
L 202.354175 226.285742 
L 212.313069 215.167235 
L 206.862699 216.202273 
L 196.898611 227.301491 
z
" style="fill-opacity:0.4;"/>
    <path clip-path="url(#p829e18f862)" d="M 354.150891 132.968763 
L 359.954965 131.744812 
L 369.136551 121.090637 
L 363.341097 122.33184 
L 354.150891 132.968763 
z
" style="fill-opacity:0.4;"/>
    <path clip-path="url(#p829e18f862)" d="M 265.076954 186.724432 
L 270.68534 185.618797 
L 280.310284 174.696568 
L 274.708581 175.820626 
L 265.076954 186.724432 
z
" style="fill-opacity:0.4;"/>
    <path clip-path="url(#p829e18f862)" d="M 175.985876 240.490446 
L 181.398497 239.503174 
L 191.466969 228.312786 
L 186.059092 229.319656 
L 175.985876 240.490446 
z
" style="fill-opacity:0.4;"/>
    <path clip-path="url(#p829e18f862)" d="M 333.32043 146.108609 
L 339.081927 144.912917 
L 348.372277 134.187345 
L 342.618957 135.400593 
L 333.32043 146.108609 
z
" style="fill-opacity:0.4;"/>
    <path clip-path="url(#p829e18f862)" d="M 244.193362 199.896397 
L 249.758937 198.819164 
L 259.493173 187.825216 
L 253.933835 188.921181 
L 244.193362 199.896397 
z
" style="fill-opacity:0.4;"/>
    <path clip-path="url(#p829e18f862)" d="M 312.466045 159.263546 
L 318.184863 158.09618 
L 327.584221 147.299052 
L 321.873135 148.484282 
L 312.466045 159.263546 
z
" style="fill-opacity:0.4;"/>
    <path clip-path="url(#p829e18f862)" d="M 223.285783 213.083492 
L 228.808444 212.034726 
L 238.652218 200.968902 
L 233.135344 202.036709 
L 223.285783 213.083492 
z
" style="fill-opacity:0.4;"/>
    <path clip-path="url(#p829e18f862)" d="M 380.804019 118.591837 
L 386.676371 117.334166 
L 395.740206 106.73424 
L 389.877084 108.008904 
L 380.804019 118.591837 
z
" style="fill-opacity:0.4;"/>
    <path clip-path="url(#p829e18f862)" d="M 291.587696 172.4336 
L 297.263733 171.294625 
L 306.772343 160.425785 
L 301.103591 161.582932 
L 291.587696 172.4336 
z
" style="fill-opacity:0.4;"/>
    <path clip-path="url(#p829e18f862)" d="M 202.354175 226.285742 
L 207.833821 225.26551 
L 217.787378 214.127651 
L 212.313069 215.167235 
L 202.354175 226.285742 
z
" style="fill-opacity:0.4;"/>
    <path clip-path="url(#p829e18f862)" d="M 359.954965 131.744812 
L 365.784668 130.515456 
L 374.957469 119.843982 
L 369.136551 121.090637 
L 359.954965 131.744812 
z
" style="fill-opacity:0.4;"/>
    <path clip-path="url(#p829e18f862)" d="M 270.68534 185.618797 
L 276.318493 184.50828 
L 285.936601 173.56757 
L 280.310284 174.696568 
L 270.68534 185.618797 
z
" style="fill-opacity:0.4;"/>
    <path clip-path="url(#p829e18f862)" d="M 181.398497 239.503174 
L 186.835024 238.511542 
L 196.898611 227.301491 
L 191.466969 228.312786 
L 181.398497 239.503174 
z
" style="fill-opacity:0.4;"/>
    <path clip-path="url(#p829e18f862)" d="M 339.081927 144.912917 
L 344.868879 143.711943 
L 354.150891 132.968763 
L 348.372277 134.187345 
L 339.081927 144.912917 
z
" style="fill-opacity:0.4;"/>
    <path clip-path="url(#p829e18f862)" d="M 249.758937 198.819164 
L 255.349104 197.737171 
L 265.076954 186.724432 
L 259.493173 187.825216 
L 249.758937 198.819164 
z
" style="fill-opacity:0.4;"/>
    <path clip-path="url(#p829e18f862)" d="M 318.184863 158.09618 
L 323.928963 156.923653 
L 333.32043 146.108609 
L 327.584221 147.299052 
L 318.184863 158.09618 
z
" style="fill-opacity:0.4;"/>
    <path clip-path="url(#p829e18f862)" d="M 228.808444 212.034726 
L 234.355522 210.981323 
L 244.193362 199.896397 
L 238.652218 200.968902 
L 228.808444 212.034726 
z
" style="fill-opacity:0.4;"/>
    <path clip-path="url(#p829e18f862)" d="M 297.263733 171.294625 
L 302.964876 170.150612 
L 312.466045 159.263546 
L 306.772343 160.425785 
L 297.263733 171.294625 
z
" style="fill-opacity:0.4;"/>
    <path clip-path="url(#p829e18f862)" d="M 207.833821 225.26551 
L 213.337707 224.240764 
L 223.285783 213.083492 
L 217.787378 214.127651 
L 207.833821 225.26551 
z
" style="fill-opacity:0.4;"/>
    <path clip-path="url(#p829e18f862)" d="M 365.784668 130.515456 
L 371.640171 129.280659 
L 380.804019 118.591837 
L 374.957469 119.843982 
L 365.784668 130.515456 
z
" style="fill-opacity:0.4;"/>
    <path clip-path="url(#p829e18f862)" d="M 276.318493 184.50828 
L 281.976578 183.392848 
L 291.587696 172.4336 
L 285.936601 173.56757 
L 276.318493 184.50828 
z
" style="fill-opacity:0.4;"/>
    <path clip-path="url(#p829e18f862)" d="M 186.835024 238.511542 
L 192.295615 237.51552 
L 202.354175 226.285742 
L 196.898611 227.301491 
L 186.835024 238.511542 
z
" style="fill-opacity:0.4;"/>
    <path clip-path="url(#p829e18f862)" d="M 344.868879 143.711943 
L 350.681457 142.50565 
L 359.954965 131.744812 
L 354.150891 132.968763 
L 344.868879 143.711943 
z
" style="fill-opacity:0.4;"/>
    <path clip-path="url(#p829e18f862)" d="M 255.349104 197.737171 
L 260.964027 196.650386 
L 270.68534 185.618797 
L 265.076954 186.724432 
L 255.349104 197.737171 
z
" style="fill-opacity:0.4;"/>
    <path clip-path="url(#p829e18f862)" d="M 323.928963 156.923653 
L 329.698512 155.745931 
L 339.081927 144.912917 
L 333.32043 146.108609 
L 323.928963 156.923653 
z
" style="fill-opacity:0.4;"/>
    <path clip-path="url(#p829e18f862)" d="M 234.355522 210.981323 
L 239.92718 209.923253 
L 249.758937 198.819164 
L 244.193362 199.896397 
L 234.355522 210.981323 
z
" style="fill-opacity:0.4;"/>
    <path clip-path="url(#p829e18f862)" d="M 302.964876 170.150612 
L 308.691294 169.001528 
L 318.184863 158.09618 
L 312.466045 159.263546 
L 302.964876 170.150612 
z
" style="fill-opacity:0.4;"/>
    <path clip-path="url(#p829e18f862)" d="M 213.337707 224.240764 
L 218.865995 223.211475 
L 228.808444 212.034726 
L 223.285783 213.083492 
L 213.337707 224.240764 
z
" style="fill-opacity:0.4;"/>
    <path clip-path="url(#p829e18f862)" d="M 371.640171 129.280659 
L 377.521644 128.040386 
L 386.676371 117.334166 
L 380.804019 118.591837 
L 371.640171 129.280659 
z
" style="fill-opacity:0.4;"/>
    <path clip-path="url(#p829e18f862)" d="M 281.976578 183.392848 
L 287.659761 182.272468 
L 297.263733 171.294625 
L 291.587696 172.4336 
L 281.976578 183.392848 
z
" style="fill-opacity:0.4;"/>
    <path clip-path="url(#p829e18f862)" d="M 192.295615 237.51552 
L 197.78043 236.51508 
L 207.833821 225.26551 
L 202.354175 226.285742 
L 192.295615 237.51552 
z
" style="fill-opacity:0.4;"/>
    <path clip-path="url(#p829e18f862)" d="M 350.681457 142.50565 
L 356.51983 141.294005 
L 365.784668 130.515456 
L 359.954965 131.744812 
L 350.681457 142.50565 
z
" style="fill-opacity:0.4;"/>
    <path clip-path="url(#p829e18f862)" d="M 260.964027 196.650386 
L 266.603871 195.558778 
L 276.318493 184.50828 
L 270.68534 185.618797 
L 260.964027 196.650386 
z
" style="fill-opacity:0.4;"/>
    <path clip-path="url(#p829e18f862)" d="M 329.698512 155.745931 
L 335.493681 154.56298 
L 344.868879 143.711943 
L 339.081927 144.912917 
L 329.698512 155.745931 
z
" style="fill-opacity:0.4;"/>
    <path clip-path="url(#p829e18f862)" d="M 239.92718 209.923253 
L 245.52358 208.860484 
L 255.349104 197.737171 
L 249.758937 198.819164 
L 239.92718 209.923253 
z
" style="fill-opacity:0.4;"/>
    <path clip-path="url(#p829e18f862)" d="M 308.691294 169.001528 
L 314.443155 167.847338 
L 323.928963 156.923653 
L 318.184863 158.09618 
L 308.691294 169.001528 
z
" style="fill-opacity:0.4;"/>
    <path clip-path="url(#p829e18f862)" d="M 218.865995 223.211475 
L 224.418848 222.177612 
L 234.355522 210.981323 
L 228.808444 212.034726 
L 218.865995 223.211475 
z
" style="fill-opacity:0.4;"/>
    <path clip-path="url(#p829e18f862)" d="M 287.659761 182.272468 
L 293.368209 181.147107 
L 302.964876 170.150612 
L 297.263733 171.294625 
L 287.659761 182.272468 
z
" style="fill-opacity:0.4;"/>
    <path clip-path="url(#p829e18f862)" d="M 197.78043 236.51508 
L 203.289631 235.510191 
L 213.337707 224.240764 
L 207.833821 225.26551 
L 197.78043 236.51508 
z
" style="fill-opacity:0.4;"/>
    <path clip-path="url(#p829e18f862)" d="M 356.51983 141.294005 
L 362.38417 140.07697 
L 371.640171 129.280659 
L 365.784668 130.515456 
L 356.51983 141.294005 
z
" style="fill-opacity:0.4;"/>
    <path clip-path="url(#p829e18f862)" d="M 266.603871 195.558778 
L 272.268801 194.462314 
L 281.976578 183.392848 
L 276.318493 184.50828 
L 266.603871 195.558778 
z
" style="fill-opacity:0.4;"/>
    <path clip-path="url(#p829e18f862)" d="M 335.493681 154.56298 
L 341.31464 153.374764 
L 350.681457 142.50565 
L 344.868879 143.711943 
L 335.493681 154.56298 
z
" style="fill-opacity:0.4;"/>
    <path clip-path="url(#p829e18f862)" d="M 245.52358 208.860484 
L 251.144889 207.792984 
L 260.964027 196.650386 
L 255.349104 197.737171 
L 245.52358 208.860484 
z
" style="fill-opacity:0.4;"/>
    <path clip-path="url(#p829e18f862)" d="M 314.443155 167.847338 
L 320.220627 166.688009 
L 329.698512 155.745931 
L 323.928963 156.923653 
L 314.443155 167.847338 
z
" style="fill-opacity:0.4;"/>
    <path clip-path="url(#p829e18f862)" d="M 224.418848 222.177612 
L 229.99643 221.139146 
L 239.92718 209.923253 
L 234.355522 210.981323 
L 224.418848 222.177612 
z
" style="fill-opacity:0.4;"/>
    <path clip-path="url(#p829e18f862)" d="M 293.368209 181.147107 
L 299.102091 180.016733 
L 308.691294 169.001528 
L 302.964876 170.150612 
L 293.368209 181.147107 
z
" style="fill-opacity:0.4;"/>
    <path clip-path="url(#p829e18f862)" d="M 203.289631 235.510191 
L 208.82338 234.500825 
L 218.865995 223.211475 
L 213.337707 224.240764 
L 203.289631 235.510191 
z
" style="fill-opacity:0.4;"/>
    <path clip-path="url(#p829e18f862)" d="M 362.38417 140.07697 
L 368.274652 138.85451 
L 377.521644 128.040386 
L 371.640171 129.280659 
L 362.38417 140.07697 
z
" style="fill-opacity:0.4;"/>
    <path clip-path="url(#p829e18f862)" d="M 272.268801 194.462314 
L 277.958987 193.360962 
L 287.659761 182.272468 
L 281.976578 183.392848 
L 272.268801 194.462314 
z
" style="fill-opacity:0.4;"/>
    <path clip-path="url(#p829e18f862)" d="M 341.31464 153.374764 
L 347.161562 152.181248 
L 356.51983 141.294005 
L 350.681457 142.50565 
L 341.31464 153.374764 
z
" style="fill-opacity:0.4;"/>
    <path clip-path="url(#p829e18f862)" d="M 251.144889 207.792984 
L 256.791273 206.720723 
L 266.603871 195.558778 
L 260.964027 196.650386 
L 251.144889 207.792984 
z
" style="fill-opacity:0.4;"/>
    <path clip-path="url(#p829e18f862)" d="M 320.220627 166.688009 
L 326.023884 165.523506 
L 335.493681 154.56298 
L 329.698512 155.745931 
L 320.220627 166.688009 
z
" style="fill-opacity:0.4;"/>
    <path clip-path="url(#p829e18f862)" d="M 229.99643 221.139146 
L 235.598905 220.096044 
L 245.52358 208.860484 
L 239.92718 209.923253 
L 229.99643 221.139146 
z
" style="fill-opacity:0.4;"/>
    <path clip-path="url(#p829e18f862)" d="M 299.102091 180.016733 
L 304.861577 178.88131 
L 314.443155 167.847338 
L 308.691294 169.001528 
L 299.102091 180.016733 
z
" style="fill-opacity:0.4;"/>
    <path clip-path="url(#p829e18f862)" d="M 208.82338 234.500825 
L 214.381842 233.486952 
L 224.418848 222.177612 
L 218.865995 223.211475 
L 208.82338 234.500825 
z
" style="fill-opacity:0.4;"/>
    <path clip-path="url(#p829e18f862)" d="M 277.958987 193.360962 
L 283.674596 192.254689 
L 293.368209 181.147107 
L 287.659761 182.272468 
L 277.958987 193.360962 
z
" style="fill-opacity:0.4;"/>
    <path clip-path="url(#p829e18f862)" d="M 347.161562 152.181248 
L 353.034621 150.982397 
L 362.38417 140.07697 
L 356.51983 141.294005 
L 347.161562 152.181248 
z
" style="fill-opacity:0.4;"/>
    <path clip-path="url(#p829e18f862)" d="M 256.791273 206.720723 
L 262.462899 205.643668 
L 272.268801 194.462314 
L 266.603871 195.558778 
L 256.791273 206.720723 
z
" style="fill-opacity:0.4;"/>
    <path clip-path="url(#p829e18f862)" d="M 326.023884 165.523506 
L 331.853098 164.353794 
L 341.31464 153.374764 
L 335.493681 154.56298 
L 326.023884 165.523506 
z
" style="fill-opacity:0.4;"/>
    <path clip-path="url(#p829e18f862)" d="M 235.598905 220.096044 
L 241.226443 219.048276 
L 251.144889 207.792984 
L 245.52358 208.860484 
L 235.598905 220.096044 
z
" style="fill-opacity:0.4;"/>
    <path clip-path="url(#p829e18f862)" d="M 304.861577 178.88131 
L 310.646839 177.740807 
L 320.220627 166.688009 
L 314.443155 167.847338 
L 304.861577 178.88131 
z
" style="fill-opacity:0.4;"/>
    <path clip-path="url(#p829e18f862)" d="M 214.381842 233.486952 
L 219.965183 232.46854 
L 229.99643 221.139146 
L 224.418848 222.177612 
L 214.381842 233.486952 
z
" style="fill-opacity:0.4;"/>
    <path clip-path="url(#p829e18f862)" d="M 283.674596 192.254689 
L 289.4158 191.143462 
L 299.102091 180.016733 
L 293.368209 181.147107 
L 283.674596 192.254689 
z
" style="fill-opacity:0.4;"/>
    <path clip-path="url(#p829e18f862)" d="M 353.034621 150.982397 
L 358.933992 149.778175 
L 368.274652 138.85451 
L 362.38417 140.07697 
L 353.034621 150.982397 
z
" style="fill-opacity:0.4;"/>
    <path clip-path="url(#p829e18f862)" d="M 262.462899 205.643668 
L 268.159938 204.561788 
L 277.958987 193.360962 
L 272.268801 194.462314 
L 262.462899 205.643668 
z
" style="fill-opacity:0.4;"/>
    <path clip-path="url(#p829e18f862)" d="M 331.853098 164.353794 
L 337.708443 163.178839 
L 347.161562 152.181248 
L 341.31464 153.374764 
L 331.853098 164.353794 
z
" style="fill-opacity:0.4;"/>
    <path clip-path="url(#p829e18f862)" d="M 241.226443 219.048276 
L 246.87921 217.995811 
L 256.791273 206.720723 
L 251.144889 207.792984 
L 241.226443 219.048276 
z
" style="fill-opacity:0.4;"/>
    <path clip-path="url(#p829e18f862)" d="M 310.646839 177.740807 
L 316.458051 176.595187 
L 326.023884 165.523506 
L 320.220627 166.688009 
L 310.646839 177.740807 
z
" style="fill-opacity:0.4;"/>
    <path clip-path="url(#p829e18f862)" d="M 219.965183 232.46854 
L 225.573571 231.44556 
L 235.598905 220.096044 
L 229.99643 221.139146 
L 219.965183 232.46854 
z
" style="fill-opacity:0.4;"/>
    <path clip-path="url(#p829e18f862)" d="M 289.4158 191.143462 
L 295.182772 190.027248 
L 304.861577 178.88131 
L 299.102091 180.016733 
L 289.4158 191.143462 
z
" style="fill-opacity:0.4;"/>
    <path clip-path="url(#p829e18f862)" d="M 268.159938 204.561788 
L 273.882561 203.475049 
L 283.674596 192.254689 
L 277.958987 193.360962 
L 268.159938 204.561788 
z
" style="fill-opacity:0.4;"/>
    <path clip-path="url(#p829e18f862)" d="M 337.708443 163.178839 
L 343.590096 161.998604 
L 353.034621 150.982397 
L 347.161562 152.181248 
L 337.708443 163.178839 
z
" style="fill-opacity:0.4;"/>
    <path clip-path="url(#p829e18f862)" d="M 246.87921 217.995811 
L 252.557377 216.938617 
L 262.462899 205.643668 
L 256.791273 206.720723 
L 246.87921 217.995811 
z
" style="fill-opacity:0.4;"/>
    <path clip-path="url(#p829e18f862)" d="M 316.458051 176.595187 
L 322.295387 175.444417 
L 331.853098 164.353794 
L 326.023884 165.523506 
L 316.458051 176.595187 
z
" style="fill-opacity:0.4;"/>
    <path clip-path="url(#p829e18f862)" d="M 225.573571 231.44556 
L 231.207173 230.417981 
L 241.226443 219.048276 
L 235.598905 220.096044 
L 225.573571 231.44556 
z
" style="fill-opacity:0.4;"/>
    <path clip-path="url(#p829e18f862)" d="M 295.182772 190.027248 
L 300.975684 188.906013 
L 310.646839 177.740807 
L 304.861577 178.88131 
L 295.182772 190.027248 
z
" style="fill-opacity:0.4;"/>
    <path clip-path="url(#p829e18f862)" d="M 273.882561 203.475049 
L 279.630941 202.383418 
L 289.4158 191.143462 
L 283.674596 192.254689 
L 273.882561 203.475049 
z
" style="fill-opacity:0.4;"/>
    <path clip-path="url(#p829e18f862)" d="M 343.590096 161.998604 
L 349.498234 160.813055 
L 358.933992 149.778175 
L 353.034621 150.982397 
L 343.590096 161.998604 
z
" style="fill-opacity:0.4;"/>
    <path clip-path="url(#p829e18f862)" d="M 252.557377 216.938617 
L 258.261115 215.876662 
L 268.159938 204.561788 
L 262.462899 205.643668 
L 252.557377 216.938617 
z
" style="fill-opacity:0.4;"/>
    <path clip-path="url(#p829e18f862)" d="M 322.295387 175.444417 
L 328.159025 174.288463 
L 337.708443 163.178839 
L 331.853098 164.353794 
L 322.295387 175.444417 
z
" style="fill-opacity:0.4;"/>
    <path clip-path="url(#p829e18f862)" d="M 231.207173 230.417981 
L 236.866162 229.385771 
L 246.87921 217.995811 
L 241.226443 219.048276 
L 231.207173 230.417981 
z
" style="fill-opacity:0.4;"/>
    <path clip-path="url(#p829e18f862)" d="M 300.975684 188.906013 
L 306.794712 187.779723 
L 316.458051 176.595187 
L 310.646839 177.740807 
L 300.975684 188.906013 
z
" style="fill-opacity:0.4;"/>
    <path clip-path="url(#p829e18f862)" d="M 279.630941 202.383418 
L 285.405252 201.286864 
L 295.182772 190.027248 
L 289.4158 191.143462 
L 279.630941 202.383418 
z
" style="fill-opacity:0.4;"/>
    <path clip-path="url(#p829e18f862)" d="M 258.261115 215.876662 
L 263.990598 214.809913 
L 273.882561 203.475049 
L 268.159938 204.561788 
L 258.261115 215.876662 
z
" style="fill-opacity:0.4;"/>
    <path clip-path="url(#p829e18f862)" d="M 328.159025 174.288463 
L 334.049142 173.127288 
L 343.590096 161.998604 
L 337.708443 163.178839 
L 328.159025 174.288463 
z
" style="fill-opacity:0.4;"/>
    <path clip-path="url(#p829e18f862)" d="M 236.866162 229.385771 
L 242.550708 228.348899 
L 252.557377 216.938617 
L 246.87921 217.995811 
L 236.866162 229.385771 
z
" style="fill-opacity:0.4;"/>
    <path clip-path="url(#p829e18f862)" d="M 306.794712 187.779723 
L 312.640034 186.648344 
L 322.295387 175.444417 
L 316.458051 176.595187 
L 306.794712 187.779723 
z
" style="fill-opacity:0.4;"/>
    <path clip-path="url(#p829e18f862)" d="M 285.405252 201.286864 
L 291.205669 200.185351 
L 300.975684 188.906013 
L 295.182772 190.027248 
L 285.405252 201.286864 
z
" style="fill-opacity:0.4;"/>
    <path clip-path="url(#p829e18f862)" d="M 263.990598 214.809913 
L 269.746001 213.738338 
L 279.630941 202.383418 
L 273.882561 203.475049 
L 263.990598 214.809913 
z
" style="fill-opacity:0.4;"/>
    <path clip-path="url(#p829e18f862)" d="M 334.049142 173.127288 
L 339.965918 171.960858 
L 349.498234 160.813055 
L 343.590096 161.998604 
L 334.049142 173.127288 
z
" style="fill-opacity:0.4;"/>
    <path clip-path="url(#p829e18f862)" d="M 242.550708 228.348899 
L 248.260985 227.307334 
L 258.261115 215.876662 
L 252.557377 216.938617 
L 242.550708 228.348899 
z
" style="fill-opacity:0.4;"/>
    <path clip-path="url(#p829e18f862)" d="M 312.640034 186.648344 
L 318.511828 185.511841 
L 328.159025 174.288463 
L 322.295387 175.444417 
L 312.640034 186.648344 
z
" style="fill-opacity:0.4;"/>
    <path clip-path="url(#p829e18f862)" d="M 291.205669 200.185351 
L 297.03237 199.078847 
L 306.794712 187.779723 
L 300.975684 188.906013 
L 291.205669 200.185351 
z
" style="fill-opacity:0.4;"/>
    <path clip-path="url(#p829e18f862)" d="M 269.746001 213.738338 
L 275.527499 212.661905 
L 285.405252 201.286864 
L 279.630941 202.383418 
L 269.746001 213.738338 
z
" style="fill-opacity:0.4;"/>
    <path clip-path="url(#p829e18f862)" d="M 248.260985 227.307334 
L 253.997169 226.261044 
L 263.990598 214.809913 
L 258.261115 215.876662 
L 248.260985 227.307334 
z
" style="fill-opacity:0.4;"/>
    <path clip-path="url(#p829e18f862)" d="M 318.511828 185.511841 
L 324.410274 184.370179 
L 334.049142 173.127288 
L 328.159025 174.288463 
L 318.511828 185.511841 
z
" style="fill-opacity:0.4;"/>
    <path clip-path="url(#p829e18f862)" d="M 297.03237 199.078847 
L 302.885535 197.967318 
L 312.640034 186.648344 
L 306.794712 187.779723 
L 297.03237 199.078847 
z
" style="fill-opacity:0.4;"/>
    <path clip-path="url(#p829e18f862)" d="M 275.527499 212.661905 
L 281.33527 211.580581 
L 291.205669 200.185351 
L 285.405252 201.286864 
L 275.527499 212.661905 
z
" style="fill-opacity:0.4;"/>
    <path clip-path="url(#p829e18f862)" d="M 253.997169 226.261044 
L 259.759436 225.209996 
L 269.746001 213.738338 
L 263.990598 214.809913 
L 253.997169 226.261044 
z
" style="fill-opacity:0.4;"/>
    <path clip-path="url(#p829e18f862)" d="M 324.410274 184.370179 
L 330.335555 183.223324 
L 339.965918 171.960858 
L 334.049142 173.127288 
L 324.410274 184.370179 
z
" style="fill-opacity:0.4;"/>
    <path clip-path="url(#p829e18f862)" d="M 302.885535 197.967318 
L 308.765343 196.850729 
L 318.511828 185.511841 
L 312.640034 186.648344 
L 302.885535 197.967318 
z
" style="fill-opacity:0.4;"/>
    <path clip-path="url(#p829e18f862)" d="M 281.33527 211.580581 
L 287.169495 210.494331 
L 297.03237 199.078847 
L 291.205669 200.185351 
L 281.33527 211.580581 
z
" style="fill-opacity:0.4;"/>
    <path clip-path="url(#p829e18f862)" d="M 259.759436 225.209996 
L 265.547964 224.154158 
L 275.527499 212.661905 
L 269.746001 213.738338 
L 259.759436 225.209996 
z
" style="fill-opacity:0.4;"/>
    <path clip-path="url(#p829e18f862)" d="M 308.765343 196.850729 
L 314.671978 195.729046 
L 324.410274 184.370179 
L 318.511828 185.511841 
L 308.765343 196.850729 
z
" style="fill-opacity:0.4;"/>
    <path clip-path="url(#p829e18f862)" d="M 287.169495 210.494331 
L 293.030353 209.403122 
L 302.885535 197.967318 
L 297.03237 199.078847 
L 287.169495 210.494331 
z
" style="fill-opacity:0.4;"/>
    <path clip-path="url(#p829e18f862)" d="M 265.547964 224.154158 
L 271.362933 223.093497 
L 281.33527 211.580581 
L 275.527499 212.661905 
L 265.547964 224.154158 
z
" style="fill-opacity:0.4;"/>
    <path clip-path="url(#p829e18f862)" d="M 314.671978 195.729046 
L 320.605623 194.602233 
L 330.335555 183.223324 
L 324.410274 184.370179 
L 314.671978 195.729046 
z
" style="fill-opacity:0.4;"/>
    <path clip-path="url(#p829e18f862)" d="M 293.030353 209.403122 
L 298.918029 208.30692 
L 308.765343 196.850729 
L 302.885535 197.967318 
L 293.030353 209.403122 
z
" style="fill-opacity:0.4;"/>
    <path clip-path="url(#p829e18f862)" d="M 271.362933 223.093497 
L 277.204526 222.027979 
L 287.169495 210.494331 
L 281.33527 211.580581 
L 271.362933 223.093497 
z
" style="fill-opacity:0.4;"/>
    <path clip-path="url(#p829e18f862)" d="M 298.918029 208.30692 
L 304.832706 207.205691 
L 314.671978 195.729046 
L 308.765343 196.850729 
L 298.918029 208.30692 
z
" style="fill-opacity:0.4;"/>
    <path clip-path="url(#p829e18f862)" d="M 277.204526 222.027979 
L 283.072924 220.957573 
L 293.030353 209.403122 
L 287.169495 210.494331 
L 277.204526 222.027979 
z
" style="fill-opacity:0.4;"/>
    <path clip-path="url(#p829e18f862)" d="M 304.832706 207.205691 
L 310.77457 206.0994 
L 320.605623 194.602233 
L 314.671978 195.729046 
L 304.832706 207.205691 
z
" style="fill-opacity:0.4;"/>
    <path clip-path="url(#p829e18f862)" d="M 283.072924 220.957573 
L 288.968313 219.882243 
L 298.918029 208.30692 
L 293.030353 209.403122 
L 283.072924 220.957573 
z
" style="fill-opacity:0.4;"/>
    <path clip-path="url(#p829e18f862)" d="M 288.968313 219.882243 
L 294.89088 218.801956 
L 304.832706 207.205691 
L 298.918029 208.30692 
L 288.968313 219.882243 
z
" style="fill-opacity:0.4;"/>
    <path clip-path="url(#p829e18f862)" d="M 294.89088 218.801956 
L 300.840813 217.716677 
L 310.77457 206.0994 
L 304.832706 207.205691 
L 294.89088 218.801956 
z
" style="fill-opacity:0.4;"/>
   </g>
  </g>
 </g>
 <defs>
  <clipPath id="p829e18f862">
   <rect height="277.2" width="390.6" x="63" y="43.2"/>
  </clipPath>
 </defs>
</svg>
